<?xml version="1.0" encoding="UTF-8"?>
<!--Generator: Apple Native CoreSVG 341-->
<!DOCTYPE svg
PUBLIC "-//W3C//DTD SVG 1.1//EN"
       "http://www.w3.org/Graphics/SVG/1.1/DTD/svg11.dtd">
<svg version="1.1" xmlns="http://www.w3.org/2000/svg" xmlns:xlink="http://www.w3.org/1999/xlink" viewBox="0 0 3300 2200">
 <!--glyph: "100865", point size: 100.0, font version: "21.0d6e2", template writer version: "138.0.0"-->
 <style>.defaults {-sfsymbols-draw-reverses-motion-groups:true}

.monochrome-0 {-sfsymbols-motion-group:0;-sfsymbols-layer-tags:bicycle}

.multicolor-0:tintColor {-sfsymbols-motion-group:0;-sfsymbols-layer-tags:bicycle}

.hierarchical-0:primary {-sfsymbols-motion-group:0;-sfsymbols-layer-tags:bicycle}

.SFSymbolsPreviewWireframe {fill:none;opacity:1.0;stroke:black;stroke-width:0.5}
</style>
 <g id="Notes">
  <rect height="2200" id="artboard" style="fill:white;opacity:1" width="3300" x="0" y="0"/>
  <line style="fill:none;stroke:black;opacity:1;stroke-width:0.5;" x1="263" x2="3036" y1="292" y2="292"/>
  <text style="stroke:none;fill:black;font-family:sans-serif;font-size:13;font-weight:bold;" transform="matrix(1 0 0 1 263 322)">Weight/Scale Variations</text>
  <text style="stroke:none;fill:black;font-family:sans-serif;font-size:13;text-anchor:middle;" transform="matrix(1 0 0 1 559.711 322)">Ultralight</text>
  <text style="stroke:none;fill:black;font-family:sans-serif;font-size:13;text-anchor:middle;" transform="matrix(1 0 0 1 856.422 322)">Thin</text>
  <text style="stroke:none;fill:black;font-family:sans-serif;font-size:13;text-anchor:middle;" transform="matrix(1 0 0 1 1153.13 322)">Light</text>
  <text style="stroke:none;fill:black;font-family:sans-serif;font-size:13;text-anchor:middle;" transform="matrix(1 0 0 1 1449.84 322)">Regular</text>
  <text style="stroke:none;fill:black;font-family:sans-serif;font-size:13;text-anchor:middle;" transform="matrix(1 0 0 1 1746.56 322)">Medium</text>
  <text style="stroke:none;fill:black;font-family:sans-serif;font-size:13;text-anchor:middle;" transform="matrix(1 0 0 1 2043.27 322)">Semibold</text>
  <text style="stroke:none;fill:black;font-family:sans-serif;font-size:13;text-anchor:middle;" transform="matrix(1 0 0 1 2339.98 322)">Bold</text>
  <text style="stroke:none;fill:black;font-family:sans-serif;font-size:13;text-anchor:middle;" transform="matrix(1 0 0 1 2636.69 322)">Heavy</text>
  <text style="stroke:none;fill:black;font-family:sans-serif;font-size:13;text-anchor:middle;" transform="matrix(1 0 0 1 2933.4 322)">Black</text>
  <line style="fill:none;stroke:black;opacity:1;stroke-width:0.5;" x1="263" x2="3036" y1="1903" y2="1903"/>
  <g transform="matrix(0.2 0 0 0.2 263 1933)">
   <path d="m46.2402 4.15039c21.7773 0 39.4531-17.627 39.4531-39.4043s-17.6758-39.4043-39.4531-39.4043c-21.7285 0-39.4043 17.627-39.4043 39.4043s17.6758 39.4043 39.4043 39.4043Zm0-7.42188c-17.6758 0-31.9336-14.3066-31.9336-31.9824s14.2578-31.9824 31.9336-31.9824 31.9824 14.3066 31.9824 31.9824-14.3066 31.9824-31.9824 31.9824Zm3.61328-17.7734v-28.4668c0-2.24609-1.46484-3.75977-3.71094-3.75977-2.14844 0-3.61328 1.51367-3.61328 3.75977v28.4668c0 2.19727 1.46484 3.71094 3.61328 3.71094 2.24609 0 3.71094-1.51367 3.71094-3.71094Zm-17.8223-10.5957h28.418c2.19727 0 3.71094-1.46484 3.71094-3.61328 0-2.19727-1.51367-3.71094-3.71094-3.71094h-28.418c-2.24609 0-3.75977 1.51367-3.75977 3.71094 0 2.14844 1.51367 3.61328 3.75977 3.61328Z"/>
  </g>
  <g transform="matrix(0.2 0 0 0.2 281.506 1933)">
   <path d="m58.5449 14.5508c27.4902 0 49.8047-22.3145 49.8047-49.8047s-22.3145-49.8047-49.8047-49.8047-49.8047 22.3145-49.8047 49.8047 22.3145 49.8047 49.8047 49.8047Zm0-8.30078c-22.9492 0-41.5039-18.5547-41.5039-41.5039s18.5547-41.5039 41.5039-41.5039 41.5039 18.5547 41.5039 41.5039-18.5547 41.5039-41.5039 41.5039Zm4.05273-23.0957v-36.9141c0-2.49023-1.70898-4.19922-4.15039-4.19922-2.39258 0-4.05273 1.70898-4.05273 4.19922v36.9141c0 2.44141 1.66016 4.15039 4.05273 4.15039 2.44141 0 4.15039-1.66016 4.15039-4.15039Zm-22.5586-14.4043h36.9629c2.44141 0 4.15039-1.61133 4.15039-4.00391 0-2.44141-1.70898-4.15039-4.15039-4.15039h-36.9629c-2.49023 0-4.15039 1.70898-4.15039 4.15039 0 2.39258 1.66016 4.00391 4.15039 4.00391Z"/>
  </g>
  <g transform="matrix(0.2 0 0 0.2 304.924 1933)">
   <path d="m74.8535 28.3203c35.1074 0 63.623-28.4668 63.623-63.5742s-28.5156-63.623-63.623-63.623-63.5742 28.5156-63.5742 63.623 28.4668 63.5742 63.5742 63.5742Zm0-9.08203c-30.127 0-54.4922-24.3652-54.4922-54.4922s24.3652-54.4922 54.4922-54.4922 54.4922 24.3652 54.4922 54.4922-24.3652 54.4922-54.4922 54.4922Zm4.44336-30.3223v-48.4863c0-2.73438-1.85547-4.63867-4.54102-4.63867-2.58789 0-4.44336 1.9043-4.44336 4.63867v48.4863c0 2.68555 1.85547 4.58984 4.44336 4.58984 2.68555 0 4.54102-1.85547 4.54102-4.58984Zm-28.7109-19.7754h48.4863c2.68555 0 4.58984-1.80664 4.58984-4.39453 0-2.73438-1.85547-4.58984-4.58984-4.58984h-48.4863c-2.73438 0-4.58984 1.85547-4.58984 4.58984 0 2.58789 1.85547 4.39453 4.58984 4.39453Z"/>
  </g>
  <text style="stroke:none;fill:black;font-family:sans-serif;font-size:13;font-weight:bold;" transform="matrix(1 0 0 1 263 1953)">Design Variations</text>
  <text style="stroke:none;fill:black;font-family:sans-serif;font-size:13;" transform="matrix(1 0 0 1 263 1971)">Symbols are supported in up to nine weights and three scales.</text>
  <text style="stroke:none;fill:black;font-family:sans-serif;font-size:13;" transform="matrix(1 0 0 1 263 1989)">For optimal layout with text and other symbols, vertically align</text>
  <text style="stroke:none;fill:black;font-family:sans-serif;font-size:13;" transform="matrix(1 0 0 1 263 2007)">symbols with the adjacent text.</text>
  <line style="fill:none;stroke:#00AEEF;stroke-width:0.5;opacity:1.0;" x1="776" x2="776" y1="1919" y2="1933"/>
  <g transform="matrix(0.2 0 0 0.2 776 1933)">
   <path d="m16.5527 0.78125c2.58789 0 3.85742-0.976562 4.78516-3.71094l20.5566-57.5195h0.244141l20.6055 57.5195c0.927734 2.73438 2.19727 3.71094 4.73633 3.71094 2.58789 0 4.24805-1.5625 4.24805-4.00391 0-0.830078-0.146484-1.61133-0.537109-2.63672l-22.9004-60.9863c-1.12305-2.97852-3.125-4.49219-6.25-4.49219-3.02734 0-5.07812 1.46484-6.15234 4.44336l-22.9004 61.084c-0.390625 1.02539-0.537109 1.80664-0.537109 2.63672 0 2.44141 1.5625 3.95508 4.10156 3.95508Zm10.2051-20.9473h30.6641c2.00195 0 3.66211-1.66016 3.66211-3.66211 0-2.05078-1.66016-3.66211-3.66211-3.66211h-30.6641c-2.00195 0-3.66211 1.61133-3.66211 3.66211 0 2.00195 1.66016 3.66211 3.66211 3.66211Z"/>
  </g>
  <line style="fill:none;stroke:#00AEEF;stroke-width:0.5;opacity:1.0;" x1="792.836" x2="792.836" y1="1919" y2="1933"/>
  <text style="stroke:none;fill:black;font-family:sans-serif;font-size:13;font-weight:bold;" transform="matrix(1 0 0 1 776 1953)">Margins</text>
  <text style="stroke:none;fill:black;font-family:sans-serif;font-size:13;" transform="matrix(1 0 0 1 776 1971)">Leading and trailing margins on the left and right side of each symbol</text>
  <text style="stroke:none;fill:black;font-family:sans-serif;font-size:13;" transform="matrix(1 0 0 1 776 1989)">can be adjusted by modifying the x-location of the margin guidelines.</text>
  <text style="stroke:none;fill:black;font-family:sans-serif;font-size:13;" transform="matrix(1 0 0 1 776 2007)">Modifications are automatically applied proportionally to all</text>
  <text style="stroke:none;fill:black;font-family:sans-serif;font-size:13;" transform="matrix(1 0 0 1 776 2025)">scales and weights.</text>
  <g transform="matrix(0.2 0 0 0.2 1289 1933)">
   <path d="m14.209 13.1348 7.86133 7.86133c4.29688 4.39453 9.32617 4.10156 13.8672-1.02539l60.6934-68.2129-4.88281-4.88281-60.2539 67.6758c-1.80664 1.95312-3.4668 2.44141-5.81055 0.0976562l-5.17578-5.12695c-2.29492-2.29492-1.80664-3.95508 0.195312-5.81055l67.4805-62.1582-4.88281-4.83398-68.0664 62.5977c-4.98047 4.58984-5.32227 9.47266-1.02539 13.8184Zm44.873-97.4609c-2.05078 2.00195-2.24609 4.88281-1.07422 6.78711 1.12305 1.80664 3.4668 3.02734 6.5918 2.24609 5.85938-1.66016 12.5977-2.39258 18.8965 0.927734l-2.68555 7.12891c-1.61133 4.00391-0.732422 6.88477 1.70898 9.42383l10.2539 10.3027c2.34375 2.39258 4.54102 2.44141 7.08008 1.95312l4.44336-0.732422 2.58789 2.53906-0.195312 2.24609c-0.0976562 2.29492 0.537109 4.29688 2.7832 6.49414l3.36914 3.32031c2.29492 2.29492 5.51758 2.49023 7.8125 0.195312l12.9883-13.0371c2.29492-2.34375 2.14844-5.37109-0.195312-7.66602l-3.41797-3.41797c-2.19727-2.19727-4.05273-3.02734-6.34766-2.88086l-2.34375 0.244141-2.44141-2.44141 1.02539-4.6875c0.634766-2.73438-0.244141-4.98047-2.88086-7.61719l-11.2793-11.1816c-12.9395-12.8418-35.5957-11.0352-46.6797-0.146484Zm7.08008 2.05078c8.78906-6.39648 25.9766-5.66406 33.6914 1.95312l12.3047 12.207c1.02539 1.02539 1.2207 1.80664 0.927734 3.32031l-1.46484 6.64062 6.73828 6.68945 4.39453-0.244141c1.12305-0.0488281 1.51367 0.0488281 2.34375 0.878906l2.53906 2.49023-10.8398 10.8398-2.49023-2.49023c-0.830078-0.878906-0.976562-1.2207-0.927734-2.39258l0.292969-4.3457-6.68945-6.73828-6.83594 1.17188c-1.41602 0.292969-2.05078 0.195312-3.17383-0.878906l-8.93555-8.88672c-1.07422-1.02539-1.17188-1.70898-0.488281-3.36914l4.58984-11.4746c-6.10352-6.34766-17.041-7.51953-25.5859-4.58984-0.683594 0.244141-0.927734-0.390625-0.390625-0.78125Z"/>
  </g>
  <text style="stroke:none;fill:black;font-family:sans-serif;font-size:13;font-weight:bold;" transform="matrix(1 0 0 1 1289 1953)">Exporting</text>
  <text style="stroke:none;fill:black;font-family:sans-serif;font-size:13;" transform="matrix(1 0 0 1 1289 1971)">Symbols should be outlined when exporting to ensure the</text>
  <text style="stroke:none;fill:black;font-family:sans-serif;font-size:13;" transform="matrix(1 0 0 1 1289 1989)">design is preserved when submitting to Xcode.</text>
  <text id="template-version" style="stroke:none;fill:black;font-family:sans-serif;font-size:13;text-anchor:end;" transform="matrix(1 0 0 1 3036 1933)">Template v.7.0</text>
  <text style="stroke:none;fill:black;font-family:sans-serif;font-size:13;text-anchor:end;" transform="matrix(1 0 0 1 3036 1951)">Requires Xcode 17 or greater</text>
  <text id="descriptive-name" style="stroke:none;fill:black;font-family:sans-serif;font-size:13;text-anchor:end;" transform="matrix(1 0 0 1 3036 1969)">Generated from bicycle</text>
  <text style="stroke:none;fill:black;font-family:sans-serif;font-size:13;text-anchor:end;" transform="matrix(1 0 0 1 3036 1987)">Typeset at 100.0 points</text>
  <text style="stroke:none;fill:black;font-family:sans-serif;font-size:13;" transform="matrix(1 0 0 1 263 726)">Small</text>
  <text style="stroke:none;fill:black;font-family:sans-serif;font-size:13;" transform="matrix(1 0 0 1 263 1156)">Medium</text>
  <text style="stroke:none;fill:black;font-family:sans-serif;font-size:13;" transform="matrix(1 0 0 1 263 1586)">Large</text>
 </g>
 <g id="Guides">
  <g id="H-reference" style="fill:#27AAE1;stroke:none;" transform="matrix(1 0 0 1 339 696)">
   <path d="M0.993654 0L3.63775 0L29.3281-67.1323L30.0303-67.1323L30.0303-70.459L28.1226-70.459ZM11.6885-24.4799L46.9815-24.4799L46.2315-26.7285L12.4385-26.7285ZM55.1196 0L57.7637 0L30.6382-70.459L29.4326-70.459L29.4326-67.1323Z"/>
  </g>
  <line id="Baseline-S" style="fill:none;stroke:#27AAE1;opacity:1;stroke-width:0.5;" x1="263" x2="3036" y1="696" y2="696"/>
  <line id="Capline-S" style="fill:none;stroke:#27AAE1;opacity:1;stroke-width:0.5;" x1="263" x2="3036" y1="625.541" y2="625.541"/>
  <g id="H-reference" style="fill:#27AAE1;stroke:none;" transform="matrix(1 0 0 1 339 1126)">
   <path d="M0.993654 0L3.63775 0L29.3281-67.1323L30.0303-67.1323L30.0303-70.459L28.1226-70.459ZM11.6885-24.4799L46.9815-24.4799L46.2315-26.7285L12.4385-26.7285ZM55.1196 0L57.7637 0L30.6382-70.459L29.4326-70.459L29.4326-67.1323Z"/>
  </g>
  <line id="Baseline-M" style="fill:none;stroke:#27AAE1;opacity:1;stroke-width:0.5;" x1="263" x2="3036" y1="1126" y2="1126"/>
  <line id="Capline-M" style="fill:none;stroke:#27AAE1;opacity:1;stroke-width:0.5;" x1="263" x2="3036" y1="1055.54" y2="1055.54"/>
  <g id="H-reference" style="fill:#27AAE1;stroke:none;" transform="matrix(1 0 0 1 339 1556)">
   <path d="M0.993654 0L3.63775 0L29.3281-67.1323L30.0303-67.1323L30.0303-70.459L28.1226-70.459ZM11.6885-24.4799L46.9815-24.4799L46.2315-26.7285L12.4385-26.7285ZM55.1196 0L57.7637 0L30.6382-70.459L29.4326-70.459L29.4326-67.1323Z"/>
  </g>
  <line id="Baseline-L" style="fill:none;stroke:#27AAE1;opacity:1;stroke-width:0.5;" x1="263" x2="3036" y1="1556" y2="1556"/>
  <line id="Capline-L" style="fill:none;stroke:#27AAE1;opacity:1;stroke-width:0.5;" x1="263" x2="3036" y1="1485.54" y2="1485.54"/>
  <line id="right-margin-Black-S" style="fill:none;stroke:#00AEEF;stroke-width:0.5;opacity:1.0;" x1="3013.65" x2="3013.65" y1="600.785" y2="720.121"/>
  <line id="left-margin-Black-S" style="fill:none;stroke:#00AEEF;stroke-width:0.5;opacity:1.0;" x1="2853.15" x2="2853.15" y1="600.785" y2="720.121"/>
  <line id="right-margin-Regular-S" style="fill:none;stroke:#00AEEF;stroke-width:0.5;opacity:1.0;" x1="1521.74" x2="1521.74" y1="600.785" y2="720.121"/>
  <line id="left-margin-Regular-S" style="fill:none;stroke:#00AEEF;stroke-width:0.5;opacity:1.0;" x1="1377.95" x2="1377.95" y1="600.785" y2="720.121"/>
  <line id="right-margin-Ultralight-S" style="fill:none;stroke:#00AEEF;stroke-width:0.5;opacity:1.0;" x1="630.861" x2="630.861" y1="600.785" y2="720.121"/>
  <line id="left-margin-Ultralight-S" style="fill:none;stroke:#00AEEF;stroke-width:0.5;opacity:1.0;" x1="488.561" x2="488.561" y1="600.785" y2="720.121"/>
 </g>
 <g id="Symbols">
  <g id="Black-S" transform="matrix(1 0 0 1 2853.15 696)">
   <path class="monochrome-0 multicolor-0:tintColor hierarchical-0:primary SFSymbolsPreviewWireframe" d="M37.3047 9.7168C52.4414 9.7168 64.7461-2.58789 64.7461-17.7734C64.7461-32.959 52.4902-45.2148 37.3047-45.2148C21.875-45.2148 9.76562-32.959 9.76562-17.7734C9.76562-2.58789 22.0703 9.7168 37.3047 9.7168ZM37.3047-0.830078C27.8809-0.830078 20.3613-8.34961 20.3613-17.7734C20.3613-27.0996 27.9297-34.668 37.3047-34.668C46.6309-34.668 54.1992-27.0996 54.1992-17.7734C54.1992-8.39844 46.6309-0.830078 37.3047-0.830078ZM123.291 9.7168C138.428 9.7168 150.732-2.58789 150.732-17.7734C150.732-32.959 138.477-45.2148 123.291-45.2148C108.057-45.2148 95.752-32.959 95.752-17.7734C95.752-2.58789 108.057 9.7168 123.291 9.7168ZM123.291-0.830078C113.867-0.830078 106.348-8.34961 106.348-17.7734C106.348-27.0996 113.916-34.668 123.291-34.668C132.617-34.668 140.186-27.0996 140.186-17.7734C140.186-8.39844 132.617-0.830078 123.291-0.830078ZM78.5156-75.2441C78.5156-72.3633 80.8594-70.0195 83.7402-70.0195L94.9219-70.0195C95.3613-70.0195 95.5566-69.873 95.7031-69.4824L118.994-13.8672L128.857-17.1875L103.955-76.416C102.783-79.1992 100.781-80.4688 97.5098-80.4688L83.7402-80.4688C80.8594-80.4688 78.5156-78.125 78.5156-75.2441ZM109.18-42.8711L109.18-52.7832L63.3301-47.4121L63.3301-37.5ZM73.3398-11.9141L73.3398-21.8262L38.4277-21.8262L38.4277-11.9141ZM78.8086-7.12891C84.6191-7.12891 89.3066-11.8164 89.3066-17.627C89.3066-23.4375 84.6191-28.125 78.8086-28.125C72.998-28.125 68.3105-23.5352 68.2129-17.6758C68.1152-11.8652 72.9004-7.12891 78.8086-7.12891ZM78.8574-14.9902C77.2949-14.9902 76.0742-16.1621 76.0742-17.4805C76.0742-18.9941 77.3438-20.2637 78.8574-20.2637C80.3223-20.2637 81.4941-19.043 81.4941-17.4805C81.4941-16.1133 80.3711-14.9902 78.8574-14.9902ZM37.3047-10.4004C41.4062-10.4004 44.6777-13.6719 44.6777-17.7734C44.6777-21.9238 41.4551-25.1465 37.3047-25.1465C33.1543-25.1465 29.9316-21.9727 29.8828-17.8223C29.834-13.6719 33.1055-10.4004 37.3047-10.4004ZM123.291-10.4004C127.393-10.4004 130.664-13.6719 130.664-17.7734C130.664-21.9238 127.441-25.1465 123.291-25.1465C119.141-25.1465 115.918-21.9727 115.869-17.8223C115.82-13.6719 119.092-10.4004 123.291-10.4004ZM75.8789-24.1699L84.8145-19.1895L113.281-49.3652L100.488-49.3652ZM32.3242-19.3359L41.1133-14.4043L66.1621-42.0898L57.2266-47.168ZM71.4844-18.9453L80.127-25.1953L60.1562-60.8887L49.9512-58.6426ZM40.0879-62.2559C40.0879-59.375 42.4316-57.0312 45.3125-57.0312L67.4316-57.0312C70.3125-57.0312 72.6562-59.375 72.6562-62.2559C72.6562-65.1367 70.3125-67.4805 67.4316-67.4805L45.3125-67.4805C42.4316-67.4805 40.0879-65.1367 40.0879-62.2559Z"/>
  </g>
  <g id="Regular-S" transform="matrix(1 0 0 1 1377.95 696)">
   <path class="monochrome-0 multicolor-0:tintColor hierarchical-0:primary SFSymbolsPreviewWireframe" d="M34.4238 3.36914C47.998 3.36914 59.0332-7.66602 59.0332-21.2402C59.0332-34.8633 48.0469-45.8496 34.4238-45.8496C20.8008-45.8496 9.76562-34.8633 9.76562-21.2402C9.76562-7.61719 20.8008 3.36914 34.4238 3.36914ZM34.4238-3.51562C24.5605-3.51562 16.6504-11.377 16.6504-21.2402C16.6504-31.0547 24.6094-39.0137 34.4238-39.0137C44.2383-39.0137 52.1973-31.0547 52.1973-21.2402C52.1973-11.4258 44.2383-3.51562 34.4238-3.51562ZM109.473 3.36914C123.047 3.36914 134.033-7.66602 134.033-21.2402C134.033-34.8633 123.047-45.8496 109.473-45.8496C95.8008-45.8496 84.7656-34.8633 84.7656-21.2402C84.7656-7.61719 95.8008 3.36914 109.473 3.36914ZM109.473-3.4668C99.6094-3.4668 91.6504-11.377 91.6504-21.2402C91.6504-31.0547 99.6094-39.0137 109.473-39.0137C119.238-39.0137 127.197-31.0059 127.197-21.2402C127.197-11.4258 119.238-3.4668 109.473-3.4668ZM74.7559-70.459C74.7559-68.5547 76.2695-67.041 78.1738-67.041L87.793-67.041C88.0859-67.041 88.1348-66.9922 88.2324-66.7969L106.348-19.5801L112.695-21.7285L93.6035-71.0449C92.8223-72.998 91.4551-73.8281 89.0137-73.8281L78.1738-73.8281C76.2695-73.8281 74.7559-72.3145 74.7559-70.459ZM99.1211-46.875L99.1211-53.125L58.5449-47.2168L58.5449-40.9668ZM67.7734-17.2852L67.7734-23.5352L34.7168-23.5352L34.7168-17.2852ZM71.7285-12.7441C76.416-12.7441 80.127-16.5039 80.127-21.0938C80.127-25.7812 76.416-29.541 71.7285-29.541C67.041-29.541 63.3301-25.8301 63.2812-21.0938C63.1836-16.5527 66.9922-12.7441 71.7285-12.7441ZM71.7285-18.6523C70.3613-18.6523 69.2383-19.7754 69.2383-21.0449C69.2383-22.4121 70.3613-23.584 71.7285-23.584C73.0957-23.584 74.1699-22.4609 74.1699-21.0449C74.1699-19.7266 73.0957-18.6523 71.7285-18.6523ZM34.4238-15.8203C37.4512-15.8203 39.8438-18.2617 39.8438-21.2402C39.8438-24.3164 37.4512-26.6602 34.4238-26.6602C31.3965-26.6602 29.0527-24.3652 29.0039-21.2402C28.9551-18.2617 31.3477-15.8203 34.4238-15.8203ZM109.473-15.8203C112.451-15.8203 114.844-18.2617 114.844-21.2402C114.844-24.3164 112.5-26.6602 109.473-26.6602C106.445-26.6602 104.053-24.3652 104.004-21.2402C103.955-18.2617 106.396-15.8203 109.473-15.8203ZM69.7754-27.2461L75.3906-24.0723L99.5117-49.5117L91.4551-49.5605ZM31.8848-23.291L37.4512-20.1172L60.0586-43.4082L54.5898-47.0703ZM66.1621-23.1934L71.7285-27.2461L55.2734-58.9355L48.7793-57.5684ZM41.3086-59.9121C41.3086-58.0078 42.8223-56.4941 44.7266-56.4941L60.3027-56.4941C62.207-56.4941 63.6719-58.0078 63.6719-59.9121C63.6719-61.7188 62.1582-63.2812 60.3027-63.2812L44.7266-63.2812C42.8711-63.2812 41.3086-61.7188 41.3086-59.9121Z"/>
  </g>
  <g id="Ultralight-S" transform="matrix(1 0 0 1 488.561 696)">
   <path class="monochrome-0 multicolor-0:tintColor hierarchical-0:primary SFSymbolsPreviewWireframe" d="M32.8345 2.46094C45.5913 2.46094 55.9453-7.89306 55.9453-20.6499C55.9453-33.3648 45.5947-43.7153 32.8345-43.7153C20.1196-43.7153 9.76562-33.3648 9.76562-20.6499C9.76562-7.88965 20.1196 2.46094 32.8345 2.46094ZM32.8345 0.253388C21.2456 0.253388 11.9732-9.01564 11.9732-20.6499C11.9732-32.1899 21.249-41.5112 32.8345-41.5112C44.3745-41.5112 53.7412-32.1445 53.7412-20.6499C53.7412-9.06447 44.3745 0.253388 32.8345 0.253388ZM109.473 2.50635C122.229 2.50635 132.535-7.84765 132.535-20.6045C132.535-33.3193 122.229-43.6699 109.473-43.6699C96.709-43.6699 86.4004-33.3193 86.4004-20.6045C86.4004-7.84424 96.709 2.50635 109.473 2.50635ZM109.473 0.302216C97.8838 0.302216 88.6079-8.97023 88.6079-20.6045C88.6079-32.1445 97.8838-41.4658 109.473-41.4658C121.009-41.4658 130.376-32.0957 130.376-20.6045C130.376-9.01906 121.009 0.302216 109.473 0.302216ZM76.0273-71.8213C76.0273-71.1885 76.4966-70.7192 77.084-70.7192L88.2925-70.7192C88.6763-70.7192 88.8613-70.625 88.959-70.3388L107.71-21.9868L109.789-22.7275L90.8335-71.4536C90.4155-72.4985 89.7749-72.9199 88.605-72.9199L77.084-72.9199C76.4966-72.9199 76.0273-72.4053 76.0273-71.8213ZM97.7588-50.0537L97.7588-52.2168L57.3643-45.8545L57.3643-43.6914ZM66.5928-19.147L66.5928-21.3101L33.627-21.3101L33.627-19.147ZM71.8193-14.1973C75.2354-14.1973 78.0381-16.958 78.0381-20.4126C78.0381-23.8286 75.2354-26.6348 71.8193-26.6348C68.4033-26.6348 65.6006-23.832 65.5971-20.4126C65.5903-16.9614 68.3999-14.1973 71.8193-14.1973ZM71.8647-16.3364C69.5894-16.3364 67.7398-18.0952 67.7398-20.4092C67.7398-22.6846 69.5894-24.4468 71.8647-24.4468C74.0947-24.4468 75.9409-22.688 75.9409-20.4092C75.9409-18.1372 74.0947-16.3364 71.8647-16.3364ZM32.8345-17.5913C34.5449-17.5913 35.8931-18.9429 35.8931-20.6499C35.8931-22.3184 34.5449-23.7085 32.8345-23.7085C31.1694-23.7085 29.7793-22.3218 29.7759-20.6499C29.7725-18.9429 31.166-17.5913 32.8345-17.5913ZM109.473-17.5459C111.134-17.5459 112.528-18.8975 112.528-20.6045C112.528-22.273 111.138-23.6631 109.473-23.6631C107.808-23.6631 106.414-22.2764 106.411-20.6045C106.407-18.8975 107.804-17.5459 109.473-17.5459ZM73.5444-25.9746L75.2998-24.7534L97.6953-50.4653L95.769-51.5586ZM31.8848-22.065L33.6822-20.8892L57.334-44.0894L55.9975-45.7988ZM67.6606-24.4194L69.458-25.6113L50.6416-58.9355L48.4614-58.3403ZM42.5801-58.7769C42.5801-58.1895 43.0493-57.7202 43.6367-57.7202L56.3067-57.7202C56.8941-57.7202 57.4053-58.1895 57.4053-58.7769C57.4053-59.4029 56.8907-59.8755 56.3067-59.8755L43.6367-59.8755C43.0527-59.8755 42.5801-59.4029 42.5801-58.7769Z"/>
  </g>
 </g>
</svg>
