<?xml version="1.0" encoding="UTF-8"?>
<!--Generator: Apple Native CoreSVG 341-->
<!DOCTYPE svg
PUBLIC "-//W3C//DTD SVG 1.1//EN"
       "http://www.w3.org/Graphics/SVG/1.1/DTD/svg11.dtd">
<svg version="1.1" xmlns="http://www.w3.org/2000/svg" xmlns:xlink="http://www.w3.org/1999/xlink" viewBox="0 0 3300 2200">
 <!--glyph: "100E06", point size: 100.0, font version: "21.0d6e2", template writer version: "138.0.0"-->
 <style>.defaults {-sfsymbols-draw-reverses-motion-groups:true}

.monochrome-0 {-sfsymbols-motion-group:0;-sfsymbols-layer-tags:ferry.fill}

.multicolor-0:tintColor {-sfsymbols-motion-group:0;-sfsymbols-layer-tags:ferry.fill}

.hierarchical-0:primary {-sfsymbols-motion-group:0;-sfsymbols-layer-tags:ferry.fill}

.SFSymbolsPreviewWireframe {fill:none;opacity:1.0;stroke:black;stroke-width:0.5}
</style>
 <g id="Notes">
  <rect height="2200" id="artboard" style="fill:white;opacity:1" width="3300" x="0" y="0"/>
  <line style="fill:none;stroke:black;opacity:1;stroke-width:0.5;" x1="263" x2="3036" y1="292" y2="292"/>
  <text style="stroke:none;fill:black;font-family:sans-serif;font-size:13;font-weight:bold;" transform="matrix(1 0 0 1 263 322)">Weight/Scale Variations</text>
  <text style="stroke:none;fill:black;font-family:sans-serif;font-size:13;text-anchor:middle;" transform="matrix(1 0 0 1 559.711 322)">Ultralight</text>
  <text style="stroke:none;fill:black;font-family:sans-serif;font-size:13;text-anchor:middle;" transform="matrix(1 0 0 1 856.422 322)">Thin</text>
  <text style="stroke:none;fill:black;font-family:sans-serif;font-size:13;text-anchor:middle;" transform="matrix(1 0 0 1 1153.13 322)">Light</text>
  <text style="stroke:none;fill:black;font-family:sans-serif;font-size:13;text-anchor:middle;" transform="matrix(1 0 0 1 1449.84 322)">Regular</text>
  <text style="stroke:none;fill:black;font-family:sans-serif;font-size:13;text-anchor:middle;" transform="matrix(1 0 0 1 1746.56 322)">Medium</text>
  <text style="stroke:none;fill:black;font-family:sans-serif;font-size:13;text-anchor:middle;" transform="matrix(1 0 0 1 2043.27 322)">Semibold</text>
  <text style="stroke:none;fill:black;font-family:sans-serif;font-size:13;text-anchor:middle;" transform="matrix(1 0 0 1 2339.98 322)">Bold</text>
  <text style="stroke:none;fill:black;font-family:sans-serif;font-size:13;text-anchor:middle;" transform="matrix(1 0 0 1 2636.69 322)">Heavy</text>
  <text style="stroke:none;fill:black;font-family:sans-serif;font-size:13;text-anchor:middle;" transform="matrix(1 0 0 1 2933.4 322)">Black</text>
  <line style="fill:none;stroke:black;opacity:1;stroke-width:0.5;" x1="263" x2="3036" y1="1903" y2="1903"/>
  <g transform="matrix(0.2 0 0 0.2 263 1933)">
   <path d="m46.2402 4.15039c21.7773 0 39.4531-17.627 39.4531-39.4043s-17.6758-39.4043-39.4531-39.4043c-21.7285 0-39.4043 17.627-39.4043 39.4043s17.6758 39.4043 39.4043 39.4043Zm0-7.42188c-17.6758 0-31.9336-14.3066-31.9336-31.9824s14.2578-31.9824 31.9336-31.9824 31.9824 14.3066 31.9824 31.9824-14.3066 31.9824-31.9824 31.9824Zm3.61328-17.7734v-28.4668c0-2.24609-1.46484-3.75977-3.71094-3.75977-2.14844 0-3.61328 1.51367-3.61328 3.75977v28.4668c0 2.19727 1.46484 3.71094 3.61328 3.71094 2.24609 0 3.71094-1.51367 3.71094-3.71094Zm-17.8223-10.5957h28.418c2.19727 0 3.71094-1.46484 3.71094-3.61328 0-2.19727-1.51367-3.71094-3.71094-3.71094h-28.418c-2.24609 0-3.75977 1.51367-3.75977 3.71094 0 2.14844 1.51367 3.61328 3.75977 3.61328Z"/>
  </g>
  <g transform="matrix(0.2 0 0 0.2 281.506 1933)">
   <path d="m58.5449 14.5508c27.4902 0 49.8047-22.3145 49.8047-49.8047s-22.3145-49.8047-49.8047-49.8047-49.8047 22.3145-49.8047 49.8047 22.3145 49.8047 49.8047 49.8047Zm0-8.30078c-22.9492 0-41.5039-18.5547-41.5039-41.5039s18.5547-41.5039 41.5039-41.5039 41.5039 18.5547 41.5039 41.5039-18.5547 41.5039-41.5039 41.5039Zm4.05273-23.0957v-36.9141c0-2.49023-1.70898-4.19922-4.15039-4.19922-2.39258 0-4.05273 1.70898-4.05273 4.19922v36.9141c0 2.44141 1.66016 4.15039 4.05273 4.15039 2.44141 0 4.15039-1.66016 4.15039-4.15039Zm-22.5586-14.4043h36.9629c2.44141 0 4.15039-1.61133 4.15039-4.00391 0-2.44141-1.70898-4.15039-4.15039-4.15039h-36.9629c-2.49023 0-4.15039 1.70898-4.15039 4.15039 0 2.39258 1.66016 4.00391 4.15039 4.00391Z"/>
  </g>
  <g transform="matrix(0.2 0 0 0.2 304.924 1933)">
   <path d="m74.8535 28.3203c35.1074 0 63.623-28.4668 63.623-63.5742s-28.5156-63.623-63.623-63.623-63.5742 28.5156-63.5742 63.623 28.4668 63.5742 63.5742 63.5742Zm0-9.08203c-30.127 0-54.4922-24.3652-54.4922-54.4922s24.3652-54.4922 54.4922-54.4922 54.4922 24.3652 54.4922 54.4922-24.3652 54.4922-54.4922 54.4922Zm4.44336-30.3223v-48.4863c0-2.73438-1.85547-4.63867-4.54102-4.63867-2.58789 0-4.44336 1.9043-4.44336 4.63867v48.4863c0 2.68555 1.85547 4.58984 4.44336 4.58984 2.68555 0 4.54102-1.85547 4.54102-4.58984Zm-28.7109-19.7754h48.4863c2.68555 0 4.58984-1.80664 4.58984-4.39453 0-2.73438-1.85547-4.58984-4.58984-4.58984h-48.4863c-2.73438 0-4.58984 1.85547-4.58984 4.58984 0 2.58789 1.85547 4.39453 4.58984 4.39453Z"/>
  </g>
  <text style="stroke:none;fill:black;font-family:sans-serif;font-size:13;font-weight:bold;" transform="matrix(1 0 0 1 263 1953)">Design Variations</text>
  <text style="stroke:none;fill:black;font-family:sans-serif;font-size:13;" transform="matrix(1 0 0 1 263 1971)">Symbols are supported in up to nine weights and three scales.</text>
  <text style="stroke:none;fill:black;font-family:sans-serif;font-size:13;" transform="matrix(1 0 0 1 263 1989)">For optimal layout with text and other symbols, vertically align</text>
  <text style="stroke:none;fill:black;font-family:sans-serif;font-size:13;" transform="matrix(1 0 0 1 263 2007)">symbols with the adjacent text.</text>
  <line style="fill:none;stroke:#00AEEF;stroke-width:0.5;opacity:1.0;" x1="776" x2="776" y1="1919" y2="1933"/>
  <g transform="matrix(0.2 0 0 0.2 776 1933)">
   <path d="m16.5527 0.78125c2.58789 0 3.85742-0.976562 4.78516-3.71094l20.5566-57.5195h0.244141l20.6055 57.5195c0.927734 2.73438 2.19727 3.71094 4.73633 3.71094 2.58789 0 4.24805-1.5625 4.24805-4.00391 0-0.830078-0.146484-1.61133-0.537109-2.63672l-22.9004-60.9863c-1.12305-2.97852-3.125-4.49219-6.25-4.49219-3.02734 0-5.07812 1.46484-6.15234 4.44336l-22.9004 61.084c-0.390625 1.02539-0.537109 1.80664-0.537109 2.63672 0 2.44141 1.5625 3.95508 4.10156 3.95508Zm10.2051-20.9473h30.6641c2.00195 0 3.66211-1.66016 3.66211-3.66211 0-2.05078-1.66016-3.66211-3.66211-3.66211h-30.6641c-2.00195 0-3.66211 1.61133-3.66211 3.66211 0 2.00195 1.66016 3.66211 3.66211 3.66211Z"/>
  </g>
  <line style="fill:none;stroke:#00AEEF;stroke-width:0.5;opacity:1.0;" x1="792.836" x2="792.836" y1="1919" y2="1933"/>
  <text style="stroke:none;fill:black;font-family:sans-serif;font-size:13;font-weight:bold;" transform="matrix(1 0 0 1 776 1953)">Margins</text>
  <text style="stroke:none;fill:black;font-family:sans-serif;font-size:13;" transform="matrix(1 0 0 1 776 1971)">Leading and trailing margins on the left and right side of each symbol</text>
  <text style="stroke:none;fill:black;font-family:sans-serif;font-size:13;" transform="matrix(1 0 0 1 776 1989)">can be adjusted by modifying the x-location of the margin guidelines.</text>
  <text style="stroke:none;fill:black;font-family:sans-serif;font-size:13;" transform="matrix(1 0 0 1 776 2007)">Modifications are automatically applied proportionally to all</text>
  <text style="stroke:none;fill:black;font-family:sans-serif;font-size:13;" transform="matrix(1 0 0 1 776 2025)">scales and weights.</text>
  <g transform="matrix(0.2 0 0 0.2 1289 1933)">
   <path d="m14.209 13.1348 7.86133 7.86133c4.29688 4.39453 9.32617 4.10156 13.8672-1.02539l60.6934-68.2129-4.88281-4.88281-60.2539 67.6758c-1.80664 1.95312-3.4668 2.44141-5.81055 0.0976562l-5.17578-5.12695c-2.29492-2.29492-1.80664-3.95508 0.195312-5.81055l67.4805-62.1582-4.88281-4.83398-68.0664 62.5977c-4.98047 4.58984-5.32227 9.47266-1.02539 13.8184Zm44.873-97.4609c-2.05078 2.00195-2.24609 4.88281-1.07422 6.78711 1.12305 1.80664 3.4668 3.02734 6.5918 2.24609 5.85938-1.66016 12.5977-2.39258 18.8965 0.927734l-2.68555 7.12891c-1.61133 4.00391-0.732422 6.88477 1.70898 9.42383l10.2539 10.3027c2.34375 2.39258 4.54102 2.44141 7.08008 1.95312l4.44336-0.732422 2.58789 2.53906-0.195312 2.24609c-0.0976562 2.29492 0.537109 4.29688 2.7832 6.49414l3.36914 3.32031c2.29492 2.29492 5.51758 2.49023 7.8125 0.195312l12.9883-13.0371c2.29492-2.34375 2.14844-5.37109-0.195312-7.66602l-3.41797-3.41797c-2.19727-2.19727-4.05273-3.02734-6.34766-2.88086l-2.34375 0.244141-2.44141-2.44141 1.02539-4.6875c0.634766-2.73438-0.244141-4.98047-2.88086-7.61719l-11.2793-11.1816c-12.9395-12.8418-35.5957-11.0352-46.6797-0.146484Zm7.08008 2.05078c8.78906-6.39648 25.9766-5.66406 33.6914 1.95312l12.3047 12.207c1.02539 1.02539 1.2207 1.80664 0.927734 3.32031l-1.46484 6.64062 6.73828 6.68945 4.39453-0.244141c1.12305-0.0488281 1.51367 0.0488281 2.34375 0.878906l2.53906 2.49023-10.8398 10.8398-2.49023-2.49023c-0.830078-0.878906-0.976562-1.2207-0.927734-2.39258l0.292969-4.3457-6.68945-6.73828-6.83594 1.17188c-1.41602 0.292969-2.05078 0.195312-3.17383-0.878906l-8.93555-8.88672c-1.07422-1.02539-1.17188-1.70898-0.488281-3.36914l4.58984-11.4746c-6.10352-6.34766-17.041-7.51953-25.5859-4.58984-0.683594 0.244141-0.927734-0.390625-0.390625-0.78125Z"/>
  </g>
  <text style="stroke:none;fill:black;font-family:sans-serif;font-size:13;font-weight:bold;" transform="matrix(1 0 0 1 1289 1953)">Exporting</text>
  <text style="stroke:none;fill:black;font-family:sans-serif;font-size:13;" transform="matrix(1 0 0 1 1289 1971)">Symbols should be outlined when exporting to ensure the</text>
  <text style="stroke:none;fill:black;font-family:sans-serif;font-size:13;" transform="matrix(1 0 0 1 1289 1989)">design is preserved when submitting to Xcode.</text>
  <text id="template-version" style="stroke:none;fill:black;font-family:sans-serif;font-size:13;text-anchor:end;" transform="matrix(1 0 0 1 3036 1933)">Template v.7.0</text>
  <text style="stroke:none;fill:black;font-family:sans-serif;font-size:13;text-anchor:end;" transform="matrix(1 0 0 1 3036 1951)">Requires Xcode 17 or greater</text>
  <text id="descriptive-name" style="stroke:none;fill:black;font-family:sans-serif;font-size:13;text-anchor:end;" transform="matrix(1 0 0 1 3036 1969)">Generated from ferry.fill</text>
  <text style="stroke:none;fill:black;font-family:sans-serif;font-size:13;text-anchor:end;" transform="matrix(1 0 0 1 3036 1987)">Typeset at 100.0 points</text>
  <text style="stroke:none;fill:black;font-family:sans-serif;font-size:13;" transform="matrix(1 0 0 1 263 726)">Small</text>
  <text style="stroke:none;fill:black;font-family:sans-serif;font-size:13;" transform="matrix(1 0 0 1 263 1156)">Medium</text>
  <text style="stroke:none;fill:black;font-family:sans-serif;font-size:13;" transform="matrix(1 0 0 1 263 1586)">Large</text>
 </g>
 <g id="Guides">
  <g id="H-reference" style="fill:#27AAE1;stroke:none;" transform="matrix(1 0 0 1 339 696)">
   <path d="M0.993654 0L3.63775 0L29.3281-67.1323L30.0303-67.1323L30.0303-70.459L28.1226-70.459ZM11.6885-24.4799L46.9815-24.4799L46.2315-26.7285L12.4385-26.7285ZM55.1196 0L57.7637 0L30.6382-70.459L29.4326-70.459L29.4326-67.1323Z"/>
  </g>
  <line id="Baseline-S" style="fill:none;stroke:#27AAE1;opacity:1;stroke-width:0.5;" x1="263" x2="3036" y1="696" y2="696"/>
  <line id="Capline-S" style="fill:none;stroke:#27AAE1;opacity:1;stroke-width:0.5;" x1="263" x2="3036" y1="625.541" y2="625.541"/>
  <g id="H-reference" style="fill:#27AAE1;stroke:none;" transform="matrix(1 0 0 1 339 1126)">
   <path d="M0.993654 0L3.63775 0L29.3281-67.1323L30.0303-67.1323L30.0303-70.459L28.1226-70.459ZM11.6885-24.4799L46.9815-24.4799L46.2315-26.7285L12.4385-26.7285ZM55.1196 0L57.7637 0L30.6382-70.459L29.4326-70.459L29.4326-67.1323Z"/>
  </g>
  <line id="Baseline-M" style="fill:none;stroke:#27AAE1;opacity:1;stroke-width:0.5;" x1="263" x2="3036" y1="1126" y2="1126"/>
  <line id="Capline-M" style="fill:none;stroke:#27AAE1;opacity:1;stroke-width:0.5;" x1="263" x2="3036" y1="1055.54" y2="1055.54"/>
  <g id="H-reference" style="fill:#27AAE1;stroke:none;" transform="matrix(1 0 0 1 339 1556)">
   <path d="M0.993654 0L3.63775 0L29.3281-67.1323L30.0303-67.1323L30.0303-70.459L28.1226-70.459ZM11.6885-24.4799L46.9815-24.4799L46.2315-26.7285L12.4385-26.7285ZM55.1196 0L57.7637 0L30.6382-70.459L29.4326-70.459L29.4326-67.1323Z"/>
  </g>
  <line id="Baseline-L" style="fill:none;stroke:#27AAE1;opacity:1;stroke-width:0.5;" x1="263" x2="3036" y1="1556" y2="1556"/>
  <line id="Capline-L" style="fill:none;stroke:#27AAE1;opacity:1;stroke-width:0.5;" x1="263" x2="3036" y1="1485.54" y2="1485.54"/>
  <line id="right-margin-Black-S" style="fill:none;stroke:#00AEEF;stroke-width:0.5;opacity:1.0;" x1="2987.45" x2="2987.45" y1="600.785" y2="720.121"/>
  <line id="left-margin-Black-S" style="fill:none;stroke:#00AEEF;stroke-width:0.5;opacity:1.0;" x1="2879.35" x2="2879.35" y1="600.785" y2="720.121"/>
  <line id="right-margin-Regular-S" style="fill:none;stroke:#00AEEF;stroke-width:0.5;opacity:1.0;" x1="1500.8" x2="1500.8" y1="600.785" y2="720.121"/>
  <line id="left-margin-Regular-S" style="fill:none;stroke:#00AEEF;stroke-width:0.5;opacity:1.0;" x1="1398.89" x2="1398.89" y1="600.785" y2="720.121"/>
  <line id="right-margin-Ultralight-S" style="fill:none;stroke:#00AEEF;stroke-width:0.5;opacity:1.0;" x1="608.098" x2="608.098" y1="600.785" y2="720.121"/>
  <line id="left-margin-Ultralight-S" style="fill:none;stroke:#00AEEF;stroke-width:0.5;opacity:1.0;" x1="511.325" x2="511.325" y1="600.785" y2="720.121"/>
 </g>
 <g id="Symbols">
  <g id="Black-S" transform="matrix(1 0 0 1 2879.35 696)">
   <path class="monochrome-0 multicolor-0:tintColor hierarchical-0:primary SFSymbolsPreviewWireframe" d="M54.0527 16.0156C66.5039 16.0156 67.7246 7.91016 72.9492 7.91016C78.1738 7.91016 79.0039 16.0156 92.6758 16.0156L93.0664 16.0156C95.9961 16.0156 98.3398 13.6719 98.3398 10.7422C98.3398 7.86133 95.9961 5.51758 93.0664 5.51758L92.6758 5.51758C90.1855 5.51758 88.1836 4.63867 84.5703 2.05078C81.9824 0.146484 78.1738-2.58789 72.9492-2.58789C67.7246-2.58789 63.916 0.146484 61.3281 2.05078C58.5449 4.10156 56.7871 5.51758 54.0527 5.51758C51.3184 5.51758 49.5605 4.10156 46.7773 2.05078C44.1895 0.146484 40.3809-2.58789 35.1562-2.58789C29.9316-2.58789 26.123 0.146484 23.5352 2.05078C19.9219 4.63867 17.9199 5.51758 15.4297 5.51758L15.0391 5.51758C12.1094 5.51758 9.76562 7.86133 9.76562 10.7422C9.76562 13.6719 12.1094 16.0156 15.0391 16.0156L15.4297 16.0156C29.1016 16.0156 29.9316 7.91016 35.1562 7.91016C40.3809 7.91016 41.6016 16.0156 54.0527 16.0156ZM54.0527-0.341797C54.6387-0.341797 55.127-0.683594 57.8613-2.68555C63.3789-6.73828 67.6758-8.44727 72.9492-8.44727C77.7344-8.44727 81.6406-7.08008 86.084-4.10156L96.0449-18.7988C100.342-25.1465 98.3398-31.3477 92.041-34.2285L61.7676-48.0469C60.2539-48.7305 57.666-50.1465 54.0527-50.1465C50.4395-50.1465 47.8516-48.7305 46.3379-48.0469L16.0645-34.2285C9.76562-31.3477 7.76367-25.1465 12.0605-18.7988L22.0215-4.10156C26.4648-7.08008 30.3711-8.44727 35.1562-8.44727C40.4297-8.44727 44.7266-6.73828 50.2441-2.68555C52.9785-0.683594 53.4668-0.341797 54.0527-0.341797ZM54.0527-56.0059C57.7148-56.0059 60.0098-55.2734 64.209-53.3691L87.1094-42.9199L83.8379-65.8203C82.8125-73.1445 79.6875-76.0254 72.8027-76.0254L35.3027-76.0254C28.418-76.0254 25.293-73.1445 24.2676-65.8203L20.9961-42.9199L43.8965-53.3691C48.0957-55.2734 50.3906-56.0059 54.0527-56.0059ZM38.1836-60.2539C36.8164-60.2539 35.8887-61.1328 35.8887-62.6465L35.8887-67.2852C35.8887-68.7988 36.8164-69.6777 38.1836-69.6777L47.6074-69.6777C49.2676-69.6777 50.293-68.7988 50.293-67.2852L50.293-62.6465C50.293-61.1328 49.2676-60.2539 47.6074-60.2539ZM60.1074-60.2539C58.6426-60.2539 57.8125-61.1328 57.8125-62.6465L57.8125-67.2852C57.8125-68.7988 58.6426-69.6777 60.1074-69.6777L69.5312-69.6777C71.1914-69.6777 72.2168-68.7988 72.2168-67.2852L72.2168-62.6465C72.2168-61.1328 71.1914-60.2539 69.5312-60.2539ZM35.791-72.8516L72.3145-72.8516L72.3145-79.6875C72.3145-84.5215 69.9707-86.377 65.1367-86.377L42.9688-86.377C38.1348-86.377 35.791-84.5215 35.791-79.6875Z"/>
  </g>
  <g id="Regular-S" transform="matrix(1 0 0 1 1398.89 696)">
   <path class="monochrome-0 multicolor-0:tintColor hierarchical-0:primary SFSymbolsPreviewWireframe" d="M50.9766 13.3301C61.6699 13.3301 63.3789 5.56641 69.1406 5.56641C75.0488 5.56641 76.0254 13.3301 88.2812 13.3301L88.4766 13.3301C90.1367 13.3301 91.5039 11.9629 91.5039 10.2539C91.5039 8.54492 90.1367 7.22656 88.4766 7.22656L88.2812 7.22656C84.2773 7.22656 82.0312 5.56641 79.1504 3.51562C76.6602 1.70898 73.4863-0.537109 69.1406-0.537109C64.5996-0.537109 61.377 1.85547 58.8867 3.71094C56.25 5.71289 54.248 7.22656 50.9766 7.22656C47.6562 7.22656 45.6543 5.71289 43.0176 3.71094C40.5273 1.85547 37.3047-0.537109 32.8125-0.537109C28.418-0.537109 25.2441 1.70898 22.7539 3.51562C19.873 5.56641 17.627 7.22656 13.6719 7.22656L13.4766 7.22656C11.7676 7.22656 10.4004 8.54492 10.4004 10.2539C10.4004 11.9629 11.7676 13.3301 13.4766 13.3301L13.6719 13.3301C25.8789 13.3301 26.9043 5.56641 32.8125 5.56641C38.5742 5.56641 40.2344 13.3301 50.9766 13.3301ZM50.9766 2.44141C52.4414 2.44141 53.125 2.09961 56.0059-0.0976562C58.4961-1.95312 63.0371-5.32227 69.1406-5.32227C72.7539-5.32227 75.6836-4.39453 79.248-2.19727L90.2344-21.2402C93.6035-27.002 92.2363-31.3965 86.4258-34.082L58.0078-47.1191C56.4941-47.8027 54.1992-49.0234 50.9766-49.0234C47.7051-49.0234 45.4102-47.8027 43.8965-47.1191L15.4785-34.082C9.66797-31.3965 8.30078-27.002 11.6699-21.2402L22.6562-2.19727C26.2207-4.39453 29.1992-5.32227 32.8125-5.32227C38.8672-5.32227 43.4082-1.95312 45.8984-0.0976562C48.7793 2.09961 49.4629 2.44141 50.9766 2.44141ZM50.9766-54.7363C54.3945-54.7363 56.543-54.0527 60.4004-52.2949L80.5664-43.0176L77.2949-67.5781C76.7578-71.6309 74.1699-74.7559 70.0684-74.7559L31.8848-74.7559C27.7832-74.7559 25.3418-71.6309 24.6582-66.6504L21.3867-43.0664L41.5039-52.2949C45.3613-54.0527 47.5098-54.7363 50.9766-54.7363ZM33.9355-58.9355C32.959-58.9355 32.3242-59.5703 32.3242-60.5469L32.3242-66.5039C32.3242-67.4805 32.959-68.1641 33.9355-68.1641L45.6543-68.1641C46.9238-68.1641 47.7051-67.4805 47.7051-66.5039L47.7051-60.5469C47.7051-59.5703 46.9238-58.9355 45.6543-58.9355ZM55.7617-58.9355C54.834-58.9355 54.1992-59.5703 54.1992-60.5469L54.1992-66.5039C54.1992-67.4805 54.834-68.1641 55.7617-68.1641L67.5293-68.1641C68.7988-68.1641 69.5801-67.4805 69.5801-66.5039L69.5801-60.5469C69.5801-59.5703 68.7988-58.9355 67.5293-58.9355ZM34.7656-73.5352L67.1875-73.5352L67.1875-76.5625C67.1875-80.4199 64.8926-82.666 61.0352-82.666L40.8691-82.666C37.0117-82.666 34.7656-80.4199 34.7656-76.5625Z"/>
  </g>
  <g id="Ultralight-S" transform="matrix(1 0 0 1 511.325 696)">
   <path class="monochrome-0 multicolor-0:tintColor hierarchical-0:primary SFSymbolsPreviewWireframe" d="M48.3882 8.15336C57.583 8.15336 59.1104 0.389689 66.5523 0.389689C74.1406 0.389689 75.208 8.15336 85.6929 8.15336L85.8882 8.15336C86.5039 8.15336 86.9629 7.64896 86.9629 7.02981C86.9629 6.45607 86.5039 5.95509 85.8882 5.95509L85.6929 5.95509C81.0532 5.95509 78.3531 3.93165 75.4722 1.92628C72.982 0.119641 70.3076-1.80858 66.5523-1.80858C62.6924-1.80858 60.0147 0.220716 57.5244 2.07618C54.8877 4.07814 52.3408 5.95509 48.3882 5.95509C44.4322 5.95509 41.8853 4.07814 39.2486 2.07618C36.7583 0.220716 34.0806-1.80858 30.2241-1.80858C26.4653-1.80858 23.8364 0.119641 21.3462 1.92628C18.4653 3.93165 15.7197 5.95509 11.0835 5.95509L10.8882 5.95509C10.3145 5.95509 9.81006 6.45607 9.81006 7.02981C9.81006 7.64896 10.3145 8.15336 10.8882 8.15336L11.0835 8.15336C21.565 8.15336 22.6358 0.389689 30.2241 0.389689C37.666 0.389689 39.1899 8.15336 48.3882 8.15336ZM48.3882 2.94091C51.3516 2.94091 53.0342 1.69092 55.688-0.324705C58.1782-2.18017 61.7202-4.82276 66.5523-4.82276C69.3482-4.82276 71.6421-3.98584 73.7081-2.833L84.1041-23.2837C86.8829-28.7275 85.4249-31.9868 80.5679-34.2183L55.2832-45.8931C53.27-46.8491 51.1568-47.752 48.3882-47.752C45.6162-47.752 43.5029-46.8491 41.4898-45.8931L16.2051-34.2183C11.3481-31.9868 9.89012-28.7275 12.6689-23.2837L23.0649-2.833C25.1309-3.98584 27.4282-4.82276 30.2241-4.82276C35.0528-4.82276 38.5948-2.18017 41.085-0.324705C43.7388 1.69092 45.4214 2.94091 48.3882 2.94091ZM48.3882-50.8311C51.7608-50.8311 54.3633-49.7388 56.5406-48.7075L76.0708-39.6573L72.6631-63.355C72.0352-67.8618 69.3565-70.2603 64.9825-70.2603L31.8848-70.2603C27.5107-70.2603 24.8423-67.8618 24.2041-63.2901L20.8418-39.7061L40.2324-48.7075C42.4097-49.7388 45.0122-50.8311 48.3882-50.8311ZM32.1646-54.44C31.5059-54.44 31.0527-54.9385 31.0527-55.6426L31.0527-62.4624C31.0527-63.1665 31.5059-63.6685 32.1646-63.6685L44.6553-63.6685C45.3799-63.6685 45.7979-63.1665 45.7979-62.4624L45.7979-55.6426C45.7979-54.9385 45.3799-54.44 44.6553-54.44ZM52.2198-54.44C51.5191-54.44 51.0659-54.9385 51.0659-55.6426L51.0659-62.4624C51.0659-63.1665 51.5191-63.6685 52.2198-63.6685L64.6685-63.6685C65.3931-63.6685 65.8111-63.1665 65.8111-62.4624L65.8111-55.6426C65.8111-54.9385 65.3931-54.44 64.6685-54.44ZM33.9028-69.4029L62.9644-69.4029L62.9644-73.7925C62.9644-76.8325 61.2144-78.67 58.1289-78.67L38.7349-78.67C35.6948-78.67 33.9028-76.8325 33.9028-73.7925Z"/>
  </g>
 </g>
</svg>
