<?xml version="1.0" encoding="UTF-8"?>
<!--Generator: Apple Native CoreSVG 341-->
<!DOCTYPE svg
PUBLIC "-//W3C//DTD SVG 1.1//EN"
       "http://www.w3.org/Graphics/SVG/1.1/DTD/svg11.dtd">
<svg version="1.1" xmlns="http://www.w3.org/2000/svg" xmlns:xlink="http://www.w3.org/1999/xlink" viewBox="0 0 3300 2200">
 <!--glyph: "1019A1", point size: 100.0, font version: "21.0d6e2", template writer version: "138.0.0"-->
 <style>.defaults {-sfsymbols-wiggle-style:linear;-sfsymbols-wiggle-angle:0;-sfsymbols-draw-reverses-motion-groups:false}

.monochrome-0 {-sfsymbols-motion-group:1;-sfsymbols-layer-tags:rectangle.portrait.and.arrow.right}
.monochrome-1 {opacity:0.0;-sfsymbols-clear-behind:true;-sfsymbols-motion-group:0;-sfsymbols-layer-tags:rectangle.portrait.and.arrow.right}
.monochrome-2 {-sfsymbols-motion-group:0;-sfsymbols-layer-tags:rectangle.portrait.and.arrow.right;-sfsymbols-clipstroke-attachments:1 4 2 1 0 0,1 4 2 0 1 1}

.multicolor-0:tintColor {-sfsymbols-motion-group:1;-sfsymbols-layer-tags:rectangle.portrait.and.arrow.right}
.multicolor-1:tintColor {opacity:0.0;-sfsymbols-clear-behind:true;-sfsymbols-motion-group:0;-sfsymbols-layer-tags:rectangle.portrait.and.arrow.right}
.multicolor-2:tintColor {-sfsymbols-motion-group:0;-sfsymbols-layer-tags:rectangle.portrait.and.arrow.right;-sfsymbols-clipstroke-attachments:1 4 2 1 0 0,1 4 2 0 1 1}

.hierarchical-0:secondary {-sfsymbols-motion-group:1;-sfsymbols-layer-tags:rectangle.portrait.and.arrow.right}
.hierarchical-1:primary {opacity:0.0;-sfsymbols-clear-behind:true;-sfsymbols-motion-group:0;-sfsymbols-layer-tags:rectangle.portrait.and.arrow.right}
.hierarchical-2:primary {-sfsymbols-motion-group:0;-sfsymbols-layer-tags:rectangle.portrait.and.arrow.right;-sfsymbols-clipstroke-attachments:1 4 2 1 0 0,1 4 2 0 1 1}

.SFSymbolsPreviewWireframe {fill:none;opacity:1.0;stroke:black;stroke-width:0.5}
</style>
 <g id="Notes">
  <rect height="2200" id="artboard" style="fill:white;opacity:1" width="3300" x="0" y="0"/>
  <line style="fill:none;stroke:black;opacity:1;stroke-width:0.5;" x1="263" x2="3036" y1="292" y2="292"/>
  <text style="stroke:none;fill:black;font-family:sans-serif;font-size:13;font-weight:bold;" transform="matrix(1 0 0 1 263 322)">Weight/Scale Variations</text>
  <text style="stroke:none;fill:black;font-family:sans-serif;font-size:13;text-anchor:middle;" transform="matrix(1 0 0 1 559.711 322)">Ultralight</text>
  <text style="stroke:none;fill:black;font-family:sans-serif;font-size:13;text-anchor:middle;" transform="matrix(1 0 0 1 856.422 322)">Thin</text>
  <text style="stroke:none;fill:black;font-family:sans-serif;font-size:13;text-anchor:middle;" transform="matrix(1 0 0 1 1153.13 322)">Light</text>
  <text style="stroke:none;fill:black;font-family:sans-serif;font-size:13;text-anchor:middle;" transform="matrix(1 0 0 1 1449.84 322)">Regular</text>
  <text style="stroke:none;fill:black;font-family:sans-serif;font-size:13;text-anchor:middle;" transform="matrix(1 0 0 1 1746.56 322)">Medium</text>
  <text style="stroke:none;fill:black;font-family:sans-serif;font-size:13;text-anchor:middle;" transform="matrix(1 0 0 1 2043.27 322)">Semibold</text>
  <text style="stroke:none;fill:black;font-family:sans-serif;font-size:13;text-anchor:middle;" transform="matrix(1 0 0 1 2339.98 322)">Bold</text>
  <text style="stroke:none;fill:black;font-family:sans-serif;font-size:13;text-anchor:middle;" transform="matrix(1 0 0 1 2636.69 322)">Heavy</text>
  <text style="stroke:none;fill:black;font-family:sans-serif;font-size:13;text-anchor:middle;" transform="matrix(1 0 0 1 2933.4 322)">Black</text>
  <line style="fill:none;stroke:black;opacity:1;stroke-width:0.5;" x1="263" x2="3036" y1="1903" y2="1903"/>
  <g transform="matrix(0.2 0 0 0.2 263 1933)">
   <path d="m46.2402 4.15039c21.7773 0 39.4531-17.627 39.4531-39.4043s-17.6758-39.4043-39.4531-39.4043c-21.7285 0-39.4043 17.627-39.4043 39.4043s17.6758 39.4043 39.4043 39.4043Zm0-7.42188c-17.6758 0-31.9336-14.3066-31.9336-31.9824s14.2578-31.9824 31.9336-31.9824 31.9824 14.3066 31.9824 31.9824-14.3066 31.9824-31.9824 31.9824Zm3.61328-17.7734v-28.4668c0-2.24609-1.46484-3.75977-3.71094-3.75977-2.14844 0-3.61328 1.51367-3.61328 3.75977v28.4668c0 2.19727 1.46484 3.71094 3.61328 3.71094 2.24609 0 3.71094-1.51367 3.71094-3.71094Zm-17.8223-10.5957h28.418c2.19727 0 3.71094-1.46484 3.71094-3.61328 0-2.19727-1.51367-3.71094-3.71094-3.71094h-28.418c-2.24609 0-3.75977 1.51367-3.75977 3.71094 0 2.14844 1.51367 3.61328 3.75977 3.61328Z"/>
  </g>
  <g transform="matrix(0.2 0 0 0.2 281.506 1933)">
   <path d="m58.5449 14.5508c27.4902 0 49.8047-22.3145 49.8047-49.8047s-22.3145-49.8047-49.8047-49.8047-49.8047 22.3145-49.8047 49.8047 22.3145 49.8047 49.8047 49.8047Zm0-8.30078c-22.9492 0-41.5039-18.5547-41.5039-41.5039s18.5547-41.5039 41.5039-41.5039 41.5039 18.5547 41.5039 41.5039-18.5547 41.5039-41.5039 41.5039Zm4.05273-23.0957v-36.9141c0-2.49023-1.70898-4.19922-4.15039-4.19922-2.39258 0-4.05273 1.70898-4.05273 4.19922v36.9141c0 2.44141 1.66016 4.15039 4.05273 4.15039 2.44141 0 4.15039-1.66016 4.15039-4.15039Zm-22.5586-14.4043h36.9629c2.44141 0 4.15039-1.61133 4.15039-4.00391 0-2.44141-1.70898-4.15039-4.15039-4.15039h-36.9629c-2.49023 0-4.15039 1.70898-4.15039 4.15039 0 2.39258 1.66016 4.00391 4.15039 4.00391Z"/>
  </g>
  <g transform="matrix(0.2 0 0 0.2 304.924 1933)">
   <path d="m74.8535 28.3203c35.1074 0 63.623-28.4668 63.623-63.5742s-28.5156-63.623-63.623-63.623-63.5742 28.5156-63.5742 63.623 28.4668 63.5742 63.5742 63.5742Zm0-9.08203c-30.127 0-54.4922-24.3652-54.4922-54.4922s24.3652-54.4922 54.4922-54.4922 54.4922 24.3652 54.4922 54.4922-24.3652 54.4922-54.4922 54.4922Zm4.44336-30.3223v-48.4863c0-2.73438-1.85547-4.63867-4.54102-4.63867-2.58789 0-4.44336 1.9043-4.44336 4.63867v48.4863c0 2.68555 1.85547 4.58984 4.44336 4.58984 2.68555 0 4.54102-1.85547 4.54102-4.58984Zm-28.7109-19.7754h48.4863c2.68555 0 4.58984-1.80664 4.58984-4.39453 0-2.73438-1.85547-4.58984-4.58984-4.58984h-48.4863c-2.73438 0-4.58984 1.85547-4.58984 4.58984 0 2.58789 1.85547 4.39453 4.58984 4.39453Z"/>
  </g>
  <text style="stroke:none;fill:black;font-family:sans-serif;font-size:13;font-weight:bold;" transform="matrix(1 0 0 1 263 1953)">Design Variations</text>
  <text style="stroke:none;fill:black;font-family:sans-serif;font-size:13;" transform="matrix(1 0 0 1 263 1971)">Symbols are supported in up to nine weights and three scales.</text>
  <text style="stroke:none;fill:black;font-family:sans-serif;font-size:13;" transform="matrix(1 0 0 1 263 1989)">For optimal layout with text and other symbols, vertically align</text>
  <text style="stroke:none;fill:black;font-family:sans-serif;font-size:13;" transform="matrix(1 0 0 1 263 2007)">symbols with the adjacent text.</text>
  <line style="fill:none;stroke:#00AEEF;stroke-width:0.5;opacity:1.0;" x1="776" x2="776" y1="1919" y2="1933"/>
  <g transform="matrix(0.2 0 0 0.2 776 1933)">
   <path d="m16.5527 0.78125c2.58789 0 3.85742-0.976562 4.78516-3.71094l20.5566-57.5195h0.244141l20.6055 57.5195c0.927734 2.73438 2.19727 3.71094 4.73633 3.71094 2.58789 0 4.24805-1.5625 4.24805-4.00391 0-0.830078-0.146484-1.61133-0.537109-2.63672l-22.9004-60.9863c-1.12305-2.97852-3.125-4.49219-6.25-4.49219-3.02734 0-5.07812 1.46484-6.15234 4.44336l-22.9004 61.084c-0.390625 1.02539-0.537109 1.80664-0.537109 2.63672 0 2.44141 1.5625 3.95508 4.10156 3.95508Zm10.2051-20.9473h30.6641c2.00195 0 3.66211-1.66016 3.66211-3.66211 0-2.05078-1.66016-3.66211-3.66211-3.66211h-30.6641c-2.00195 0-3.66211 1.61133-3.66211 3.66211 0 2.00195 1.66016 3.66211 3.66211 3.66211Z"/>
  </g>
  <line style="fill:none;stroke:#00AEEF;stroke-width:0.5;opacity:1.0;" x1="792.836" x2="792.836" y1="1919" y2="1933"/>
  <text style="stroke:none;fill:black;font-family:sans-serif;font-size:13;font-weight:bold;" transform="matrix(1 0 0 1 776 1953)">Margins</text>
  <text style="stroke:none;fill:black;font-family:sans-serif;font-size:13;" transform="matrix(1 0 0 1 776 1971)">Leading and trailing margins on the left and right side of each symbol</text>
  <text style="stroke:none;fill:black;font-family:sans-serif;font-size:13;" transform="matrix(1 0 0 1 776 1989)">can be adjusted by modifying the x-location of the margin guidelines.</text>
  <text style="stroke:none;fill:black;font-family:sans-serif;font-size:13;" transform="matrix(1 0 0 1 776 2007)">Modifications are automatically applied proportionally to all</text>
  <text style="stroke:none;fill:black;font-family:sans-serif;font-size:13;" transform="matrix(1 0 0 1 776 2025)">scales and weights.</text>
  <g transform="matrix(0.2 0 0 0.2 1289 1933)">
   <path d="m14.209 13.1348 7.86133 7.86133c4.29688 4.39453 9.32617 4.10156 13.8672-1.02539l60.6934-68.2129-4.88281-4.88281-60.2539 67.6758c-1.80664 1.95312-3.4668 2.44141-5.81055 0.0976562l-5.17578-5.12695c-2.29492-2.29492-1.80664-3.95508 0.195312-5.81055l67.4805-62.1582-4.88281-4.83398-68.0664 62.5977c-4.98047 4.58984-5.32227 9.47266-1.02539 13.8184Zm44.873-97.4609c-2.05078 2.00195-2.24609 4.88281-1.07422 6.78711 1.12305 1.80664 3.4668 3.02734 6.5918 2.24609 5.85938-1.66016 12.5977-2.39258 18.8965 0.927734l-2.68555 7.12891c-1.61133 4.00391-0.732422 6.88477 1.70898 9.42383l10.2539 10.3027c2.34375 2.39258 4.54102 2.44141 7.08008 1.95312l4.44336-0.732422 2.58789 2.53906-0.195312 2.24609c-0.0976562 2.29492 0.537109 4.29688 2.7832 6.49414l3.36914 3.32031c2.29492 2.29492 5.51758 2.49023 7.8125 0.195312l12.9883-13.0371c2.29492-2.34375 2.14844-5.37109-0.195312-7.66602l-3.41797-3.41797c-2.19727-2.19727-4.05273-3.02734-6.34766-2.88086l-2.34375 0.244141-2.44141-2.44141 1.02539-4.6875c0.634766-2.73438-0.244141-4.98047-2.88086-7.61719l-11.2793-11.1816c-12.9395-12.8418-35.5957-11.0352-46.6797-0.146484Zm7.08008 2.05078c8.78906-6.39648 25.9766-5.66406 33.6914 1.95312l12.3047 12.207c1.02539 1.02539 1.2207 1.80664 0.927734 3.32031l-1.46484 6.64062 6.73828 6.68945 4.39453-0.244141c1.12305-0.0488281 1.51367 0.0488281 2.34375 0.878906l2.53906 2.49023-10.8398 10.8398-2.49023-2.49023c-0.830078-0.878906-0.976562-1.2207-0.927734-2.39258l0.292969-4.3457-6.68945-6.73828-6.83594 1.17188c-1.41602 0.292969-2.05078 0.195312-3.17383-0.878906l-8.93555-8.88672c-1.07422-1.02539-1.17188-1.70898-0.488281-3.36914l4.58984-11.4746c-6.10352-6.34766-17.041-7.51953-25.5859-4.58984-0.683594 0.244141-0.927734-0.390625-0.390625-0.78125Z"/>
  </g>
  <text style="stroke:none;fill:black;font-family:sans-serif;font-size:13;font-weight:bold;" transform="matrix(1 0 0 1 1289 1953)">Exporting</text>
  <text style="stroke:none;fill:black;font-family:sans-serif;font-size:13;" transform="matrix(1 0 0 1 1289 1971)">Symbols should be outlined when exporting to ensure the</text>
  <text style="stroke:none;fill:black;font-family:sans-serif;font-size:13;" transform="matrix(1 0 0 1 1289 1989)">design is preserved when submitting to Xcode.</text>
  <text id="template-version" style="stroke:none;fill:black;font-family:sans-serif;font-size:13;text-anchor:end;" transform="matrix(1 0 0 1 3036 1933)">Template v.7.0</text>
  <text style="stroke:none;fill:black;font-family:sans-serif;font-size:13;text-anchor:end;" transform="matrix(1 0 0 1 3036 1951)">Requires Xcode 17 or greater</text>
  <text id="descriptive-name" style="stroke:none;fill:black;font-family:sans-serif;font-size:13;text-anchor:end;" transform="matrix(1 0 0 1 3036 1969)">Generated from rectangle.portrait.and.arrow.right</text>
  <text style="stroke:none;fill:black;font-family:sans-serif;font-size:13;text-anchor:end;" transform="matrix(1 0 0 1 3036 1987)">Typeset at 100.0 points</text>
  <text style="stroke:none;fill:black;font-family:sans-serif;font-size:13;" transform="matrix(1 0 0 1 263 726)">Small</text>
  <text style="stroke:none;fill:black;font-family:sans-serif;font-size:13;" transform="matrix(1 0 0 1 263 1156)">Medium</text>
  <text style="stroke:none;fill:black;font-family:sans-serif;font-size:13;" transform="matrix(1 0 0 1 263 1586)">Large</text>
 </g>
 <g id="Guides">
  <g id="H-reference" style="fill:#27AAE1;stroke:none;" transform="matrix(1 0 0 1 339 696)">
   <path d="M0.993654 0L3.63775 0L29.3281-67.1323L30.0303-67.1323L30.0303-70.459L28.1226-70.459ZM11.6885-24.4799L46.9815-24.4799L46.2315-26.7285L12.4385-26.7285ZM55.1196 0L57.7637 0L30.6382-70.459L29.4326-70.459L29.4326-67.1323Z"/>
  </g>
  <line id="Baseline-S" style="fill:none;stroke:#27AAE1;opacity:1;stroke-width:0.5;" x1="263" x2="3036" y1="696" y2="696"/>
  <line id="Capline-S" style="fill:none;stroke:#27AAE1;opacity:1;stroke-width:0.5;" x1="263" x2="3036" y1="625.541" y2="625.541"/>
  <g id="H-reference" style="fill:#27AAE1;stroke:none;" transform="matrix(1 0 0 1 339 1126)">
   <path d="M0.993654 0L3.63775 0L29.3281-67.1323L30.0303-67.1323L30.0303-70.459L28.1226-70.459ZM11.6885-24.4799L46.9815-24.4799L46.2315-26.7285L12.4385-26.7285ZM55.1196 0L57.7637 0L30.6382-70.459L29.4326-70.459L29.4326-67.1323Z"/>
  </g>
  <line id="Baseline-M" style="fill:none;stroke:#27AAE1;opacity:1;stroke-width:0.5;" x1="263" x2="3036" y1="1126" y2="1126"/>
  <line id="Capline-M" style="fill:none;stroke:#27AAE1;opacity:1;stroke-width:0.5;" x1="263" x2="3036" y1="1055.54" y2="1055.54"/>
  <g id="H-reference" style="fill:#27AAE1;stroke:none;" transform="matrix(1 0 0 1 339 1556)">
   <path d="M0.993654 0L3.63775 0L29.3281-67.1323L30.0303-67.1323L30.0303-70.459L28.1226-70.459ZM11.6885-24.4799L46.9815-24.4799L46.2315-26.7285L12.4385-26.7285ZM55.1196 0L57.7637 0L30.6382-70.459L29.4326-70.459L29.4326-67.1323Z"/>
  </g>
  <line id="Baseline-L" style="fill:none;stroke:#27AAE1;opacity:1;stroke-width:0.5;" x1="263" x2="3036" y1="1556" y2="1556"/>
  <line id="Capline-L" style="fill:none;stroke:#27AAE1;opacity:1;stroke-width:0.5;" x1="263" x2="3036" y1="1485.54" y2="1485.54"/>
  <line id="right-margin-Black-S" style="fill:none;stroke:#00AEEF;stroke-width:0.5;opacity:1.0;" x1="2993.04" x2="2993.04" y1="600.785" y2="720.121"/>
  <line id="left-margin-Black-S" style="fill:none;stroke:#00AEEF;stroke-width:0.5;opacity:1.0;" x1="2873.76" x2="2873.76" y1="600.785" y2="720.121"/>
  <line id="right-margin-Regular-S" style="fill:none;stroke:#00AEEF;stroke-width:0.5;opacity:1.0;" x1="1504.63" x2="1504.63" y1="600.785" y2="720.121"/>
  <line id="left-margin-Regular-S" style="fill:none;stroke:#00AEEF;stroke-width:0.5;opacity:1.0;" x1="1395.06" x2="1395.06" y1="600.785" y2="720.121"/>
  <line id="right-margin-Ultralight-S" style="fill:none;stroke:#00AEEF;stroke-width:0.5;opacity:1.0;" x1="611.204" x2="611.204" y1="600.785" y2="720.121"/>
  <line id="left-margin-Ultralight-S" style="fill:none;stroke:#00AEEF;stroke-width:0.5;opacity:1.0;" x1="508.218" x2="508.218" y1="600.785" y2="720.121"/>
 </g>
 <g id="Symbols">
  <g id="Black-S" transform="matrix(1 0 0 1 2873.76 696)">
   <path class="monochrome-0 multicolor-0:tintColor hierarchical-0:secondary SFSymbolsPreviewWireframe" d="M28.2227 8.1543L63.1836 8.1543C75 8.1543 81.6406 1.51367 81.6406-10.3027L81.6406-60.1074C81.6406-71.9238 75-78.5645 63.1836-78.5645L28.2227-78.5645C16.4062-78.5645 9.76562-71.9238 9.76562-60.1074L9.76562-10.3027C9.76562 1.51367 16.4062 8.1543 28.2227 8.1543ZM29.4434-6.00586C25.9277-6.00586 23.9258-7.95898 23.9258-11.4746L23.9258-58.9355C23.9258-62.4512 25.9277-64.4043 29.4434-64.4043L61.9629-64.4043C65.4785-64.4043 67.4805-62.4512 67.4805-58.9355L67.4805-11.4746C67.4805-7.95898 65.4785-6.00586 61.9629-6.00586Z" data-clipstroke-keyframes="0 4 0 0.31093928 1.6662917 0 0.09196838 0.21897092 1.8014443 0 0.1852476 0.1256917 1.8209834 0 0.31484464 0.99609464 1.0122466 0 0.40882167 0.9021176 1.0322586 0 0.58975583 0.7211834 1.2984887 0 0.6857132 0.6252261 1.3223774 0 0.8149613 0.495978 1.5111551 0 0.9085906 0.40234867 1.5319183 0 1 0.31093928 1.6662917"/>
   <path class="monochrome-1 multicolor-1:tintColor hierarchical-1:primary SFSymbolsPreviewWireframe" d="M54.248-21.9238L102.637-21.9238C109.863-21.9238 115.918-27.7832 115.918-35.2539C115.918-42.7246 109.863-48.584 102.637-48.584L54.248-48.584C47.0215-48.584 40.9668-42.7246 40.9668-35.2539C40.9668-27.7832 47.0215-21.9238 54.248-21.9238Z"/>
   <path class="monochrome-2 multicolor-2:tintColor hierarchical-2:primary SFSymbolsPreviewWireframe" d="M48.291-35.2539C48.291-31.8359 51.0742-29.248 54.248-29.248L90.1855-29.248L104.492-30.6641C107.031-30.9082 109.082-32.7148 109.082-35.2539C109.082-37.793 107.031-39.5996 104.492-39.8438L90.1855-41.2598L54.248-41.2598C51.0742-41.2598 48.291-38.6719 48.291-35.2539ZM87.207-49.1699C87.207-47.6562 87.8418-46.3379 88.8672-45.3613L92.334-42.0898L104.199-35.2539L92.334-28.418L88.8672-25.1465C87.8418-24.1699 87.207-22.8516 87.207-21.3379C87.207-18.8477 89.1602-16.3086 92.041-16.3086C93.5059-16.3086 94.5312-16.8457 95.5078-17.8223L107.422-30.2734C108.984-31.8848 109.57-33.5938 109.57-35.2539C109.57-36.9141 108.984-38.623 107.422-40.2344L95.5078-52.6855C94.5312-53.6621 93.5059-54.1992 92.041-54.1992C89.1602-54.1992 87.207-51.6602 87.207-49.1699Z" data-clipstroke-keyframes="0 0 0 0.92921543 0.07078457 0 0.71578234 0.33946872 0.6605313 0 1 0.44615602 0.553844"/>
  </g>
  <g id="Regular-S" transform="matrix(1 0 0 1 1395.06 696)">
   <path class="monochrome-0 multicolor-0:tintColor hierarchical-0:secondary SFSymbolsPreviewWireframe" d="M25.9766 5.9082L58.5938 5.9082C68.9941 5.9082 74.8047 0.146484 74.8047-10.3027L74.8047-60.2051C74.8047-70.6055 68.9941-76.416 58.5938-76.416L25.9766-76.416C15.5762-76.416 9.76562-70.6055 9.76562-60.2051L9.76562-10.3027C9.76562 0.146484 15.5762 5.9082 25.9766 5.9082ZM25.9766-1.12305C20.1172-1.12305 16.7969-4.44336 16.7969-10.3027L16.7969-60.2051C16.7969-66.0645 20.1172-69.3848 25.9766-69.3848L58.5938-69.3848C64.4531-69.3848 67.7246-66.0645 67.7246-60.2051L67.7246-10.3027C67.7246-4.44336 64.4531-1.12305 58.5938-1.12305Z" data-clipstroke-keyframes="0 4 0 0.31088644 1.676858 0 0.10689627 0.20399018 1.8063929 0 0.17535776 0.1355287 1.8366846 0 0.32540792 0.9854785 1.0177919 0 0.3938694 0.91701704 1.0494852 0 0.60673416 0.7041523 1.3043319 0 0.67611605 0.6347704 1.3388934 0 0.82464963 0.48623684 1.5158088 0 0.8938793 0.41700712 1.5481929 0 1 0.31088644 1.676858"/>
   <path class="monochrome-1 multicolor-1:tintColor hierarchical-1:primary SFSymbolsPreviewWireframe" d="M46.4355-24.1211L94.6777-24.1211C100.732-24.1211 105.713-29.1504 105.713-35.2539C105.713-41.3574 100.732-46.3867 94.6777-46.3867L46.4355-46.3867C40.3809-46.3867 35.3516-41.3574 35.3516-35.2539C35.3516-29.1504 40.3809-24.1211 46.4355-24.1211Z"/>
   <path class="monochrome-2 multicolor-2:tintColor hierarchical-2:primary SFSymbolsPreviewWireframe" d="M43.0176-35.2539C43.0176-33.3984 44.5801-31.7871 46.4355-31.7871L84.4727-31.7871L95.6055-32.3242C97.2168-32.4219 98.5352-33.6426 98.5352-35.2539C98.5352-36.8652 97.2168-38.0859 95.6055-38.1836L84.4727-38.7207L46.4355-38.7207C44.5801-38.7207 43.0176-37.1094 43.0176-35.2539ZM81.2988-48.1934C81.2988-47.3633 81.6406-46.4355 82.3242-45.8008L88.1836-40.4297L93.75-35.2539L88.1836-30.0781L82.3242-24.707C81.6406-24.0723 81.2988-23.1934 81.2988-22.3633C81.2988-20.5078 82.5684-19.1406 84.375-19.1406C85.3027-19.1406 85.9863-19.5312 86.6699-20.2148L98.6328-32.7148C99.5117-33.5938 99.8047-34.375 99.8047-35.2539C99.8047-36.1328 99.5117-36.9141 98.6328-37.793L86.6699-50.293C85.9863-50.9766 85.3027-51.3672 84.375-51.3672C82.5684-51.3672 81.2988-50.0488 81.2988-48.1934Z" data-clipstroke-keyframes="0 0 0 0.9548125 0.045187473 0 0.7751512 0.3674934 0.6325064 0 1 0.46098518 0.5390148"/>
  </g>
  <g id="Ultralight-S" transform="matrix(1 0 0 1 508.218 696)">
   <path class="monochrome-0 multicolor-0:tintColor hierarchical-0:secondary SFSymbolsPreviewWireframe" d="M24.8867 5.18165L56.0054 5.18165C65.6792 5.18165 71.0811-0.216794 71.0811-9.93946L71.0811-60.3867C71.0811-70.106 65.6792-75.5078 56.0054-75.5078L24.8867-75.5078C15.2129-75.5078 9.76562-70.106 9.76562-60.3867L9.76562-9.93946C9.76562-0.216794 15.2129 5.18165 24.8867 5.18165ZM24.8413 2.96384C16.5752 2.96384 11.9834-1.67336 11.9834-9.93946L11.9834-60.4321C11.9834-68.6528 16.5752-73.29 24.8413-73.29L56.0508-73.29C64.2715-73.29 68.9053-68.6528 68.9053-60.4321L68.9053-9.93946C68.9053-1.67336 64.2715 2.96384 56.0508 2.96384Z" data-clipstroke-keyframes="0 4 0 0.3100453 1.6861929 0 0.11676487 0.19328043 1.8095266 0 0.17111686 0.13892844 1.8531191 0 0.32954454 0.98050076 1.0202543 0 0.38399208 0.9260532 1.0638275 0 0.61564136 0.69440395 1.308441 0 0.67121476 0.63883054 1.3532609 0 0.82954985 0.48049548 1.5199032 0 0.88399637 0.42604893 1.5637565 0 1 0.3100453 1.6861929"/>
   <path class="monochrome-1 multicolor-1:tintColor hierarchical-1:primary SFSymbolsPreviewWireframe" d="M41.8492-29.1162L93.5879-29.1162C96.9634-29.1162 99.7188-31.875 99.7188-35.2539C99.7188-38.6328 96.9634-41.3916 93.5879-41.3916L41.8492-41.3916C38.4736-41.3916 35.7148-38.6328 35.7148-35.2539C35.7148-31.875 38.4736-29.1162 41.8492-29.1162Z"/>
   <path class="monochrome-2 multicolor-2:tintColor hierarchical-2:primary SFSymbolsPreviewWireframe" d="M40.7471-35.2539C40.7471-34.6699 41.2198-34.1484 41.8492-34.1484L84.5635-34.1484L91.2461-34.2314C91.7676-34.2383 92.2686-34.7324 92.2686-35.2539C92.2686-35.7754 91.7676-36.2695 91.2461-36.2764L84.5635-36.3594L41.8492-36.3594C41.2198-36.3594 40.7471-35.8379 40.7471-35.2539ZM78.1201-48.375C78.1201-48.0898 78.2803-47.7978 78.5098-47.5718L86.8213-39.2944L90.9346-35.2539L86.8213-31.2588L78.5098-22.9815C78.2803-22.7554 78.1201-22.4668 78.1201-22.1816C78.1201-21.6885 78.6177-21.1841 79.1983-21.1841C79.4449-21.1841 79.6744-21.3022 79.9039-21.5317L92.8658-34.4858C93.1089-34.729 93.2203-34.9653 93.2203-35.2539C93.2203-35.5425 93.1089-35.7788 92.8658-36.022L79.9039-49.0215C79.6744-49.251 79.4449-49.3692 79.1983-49.3692C78.6177-49.3692 78.1201-48.9136 78.1201-48.375Z" data-clipstroke-keyframes="0 0 0 0.9841192 0.015880823 0 0.8650675 0.4220643 0.5779357 0 1 0.48542047 0.5145793"/>
  </g>
 </g>
 <g id="Data">
  <g id="Black-S-draw-attachment-data" data-d="0 1 0 2978.19 660.746"/>
  <g id="Regular-S-draw-attachment-data" data-d="0 1 0 1490.62 660.746"/>
  <g id="Ultralight-S-draw-attachment-data" data-d="0 1 0 599.513 660.746"/>
 </g>
</svg>
