<?xml version="1.0" encoding="UTF-8"?>
<!--Generator: Apple Native CoreSVG 341-->
<!DOCTYPE svg
PUBLIC "-//W3C//DTD SVG 1.1//EN"
       "http://www.w3.org/Graphics/SVG/1.1/DTD/svg11.dtd">
<svg version="1.1" xmlns="http://www.w3.org/2000/svg" xmlns:xlink="http://www.w3.org/1999/xlink" viewBox="0 0 3300 2200">
 <!--glyph: "100746", point size: 100.0, font version: "21.0d6e2", template writer version: "138.0.0"-->
 <style>.defaults {-sfsymbols-draw-reverses-motion-groups:true}

.monochrome-0 {-sfsymbols-motion-group:0;-sfsymbols-layer-tags:tram}

.multicolor-0:tintColor {-sfsymbols-motion-group:0;-sfsymbols-layer-tags:tram}

.hierarchical-0:primary {-sfsymbols-motion-group:0;-sfsymbols-layer-tags:tram}

.SFSymbolsPreviewWireframe {fill:none;opacity:1.0;stroke:black;stroke-width:0.5}
</style>
 <g id="Notes">
  <rect height="2200" id="artboard" style="fill:white;opacity:1" width="3300" x="0" y="0"/>
  <line style="fill:none;stroke:black;opacity:1;stroke-width:0.5;" x1="263" x2="3036" y1="292" y2="292"/>
  <text style="stroke:none;fill:black;font-family:sans-serif;font-size:13;font-weight:bold;" transform="matrix(1 0 0 1 263 322)">Weight/Scale Variations</text>
  <text style="stroke:none;fill:black;font-family:sans-serif;font-size:13;text-anchor:middle;" transform="matrix(1 0 0 1 559.711 322)">Ultralight</text>
  <text style="stroke:none;fill:black;font-family:sans-serif;font-size:13;text-anchor:middle;" transform="matrix(1 0 0 1 856.422 322)">Thin</text>
  <text style="stroke:none;fill:black;font-family:sans-serif;font-size:13;text-anchor:middle;" transform="matrix(1 0 0 1 1153.13 322)">Light</text>
  <text style="stroke:none;fill:black;font-family:sans-serif;font-size:13;text-anchor:middle;" transform="matrix(1 0 0 1 1449.84 322)">Regular</text>
  <text style="stroke:none;fill:black;font-family:sans-serif;font-size:13;text-anchor:middle;" transform="matrix(1 0 0 1 1746.56 322)">Medium</text>
  <text style="stroke:none;fill:black;font-family:sans-serif;font-size:13;text-anchor:middle;" transform="matrix(1 0 0 1 2043.27 322)">Semibold</text>
  <text style="stroke:none;fill:black;font-family:sans-serif;font-size:13;text-anchor:middle;" transform="matrix(1 0 0 1 2339.98 322)">Bold</text>
  <text style="stroke:none;fill:black;font-family:sans-serif;font-size:13;text-anchor:middle;" transform="matrix(1 0 0 1 2636.69 322)">Heavy</text>
  <text style="stroke:none;fill:black;font-family:sans-serif;font-size:13;text-anchor:middle;" transform="matrix(1 0 0 1 2933.4 322)">Black</text>
  <line style="fill:none;stroke:black;opacity:1;stroke-width:0.5;" x1="263" x2="3036" y1="1903" y2="1903"/>
  <g transform="matrix(0.2 0 0 0.2 263 1933)">
   <path d="m46.2402 4.15039c21.7773 0 39.4531-17.627 39.4531-39.4043s-17.6758-39.4043-39.4531-39.4043c-21.7285 0-39.4043 17.627-39.4043 39.4043s17.6758 39.4043 39.4043 39.4043Zm0-7.42188c-17.6758 0-31.9336-14.3066-31.9336-31.9824s14.2578-31.9824 31.9336-31.9824 31.9824 14.3066 31.9824 31.9824-14.3066 31.9824-31.9824 31.9824Zm3.61328-17.7734v-28.4668c0-2.24609-1.46484-3.75977-3.71094-3.75977-2.14844 0-3.61328 1.51367-3.61328 3.75977v28.4668c0 2.19727 1.46484 3.71094 3.61328 3.71094 2.24609 0 3.71094-1.51367 3.71094-3.71094Zm-17.8223-10.5957h28.418c2.19727 0 3.71094-1.46484 3.71094-3.61328 0-2.19727-1.51367-3.71094-3.71094-3.71094h-28.418c-2.24609 0-3.75977 1.51367-3.75977 3.71094 0 2.14844 1.51367 3.61328 3.75977 3.61328Z"/>
  </g>
  <g transform="matrix(0.2 0 0 0.2 281.506 1933)">
   <path d="m58.5449 14.5508c27.4902 0 49.8047-22.3145 49.8047-49.8047s-22.3145-49.8047-49.8047-49.8047-49.8047 22.3145-49.8047 49.8047 22.3145 49.8047 49.8047 49.8047Zm0-8.30078c-22.9492 0-41.5039-18.5547-41.5039-41.5039s18.5547-41.5039 41.5039-41.5039 41.5039 18.5547 41.5039 41.5039-18.5547 41.5039-41.5039 41.5039Zm4.05273-23.0957v-36.9141c0-2.49023-1.70898-4.19922-4.15039-4.19922-2.39258 0-4.05273 1.70898-4.05273 4.19922v36.9141c0 2.44141 1.66016 4.15039 4.05273 4.15039 2.44141 0 4.15039-1.66016 4.15039-4.15039Zm-22.5586-14.4043h36.9629c2.44141 0 4.15039-1.61133 4.15039-4.00391 0-2.44141-1.70898-4.15039-4.15039-4.15039h-36.9629c-2.49023 0-4.15039 1.70898-4.15039 4.15039 0 2.39258 1.66016 4.00391 4.15039 4.00391Z"/>
  </g>
  <g transform="matrix(0.2 0 0 0.2 304.924 1933)">
   <path d="m74.8535 28.3203c35.1074 0 63.623-28.4668 63.623-63.5742s-28.5156-63.623-63.623-63.623-63.5742 28.5156-63.5742 63.623 28.4668 63.5742 63.5742 63.5742Zm0-9.08203c-30.127 0-54.4922-24.3652-54.4922-54.4922s24.3652-54.4922 54.4922-54.4922 54.4922 24.3652 54.4922 54.4922-24.3652 54.4922-54.4922 54.4922Zm4.44336-30.3223v-48.4863c0-2.73438-1.85547-4.63867-4.54102-4.63867-2.58789 0-4.44336 1.9043-4.44336 4.63867v48.4863c0 2.68555 1.85547 4.58984 4.44336 4.58984 2.68555 0 4.54102-1.85547 4.54102-4.58984Zm-28.7109-19.7754h48.4863c2.68555 0 4.58984-1.80664 4.58984-4.39453 0-2.73438-1.85547-4.58984-4.58984-4.58984h-48.4863c-2.73438 0-4.58984 1.85547-4.58984 4.58984 0 2.58789 1.85547 4.39453 4.58984 4.39453Z"/>
  </g>
  <text style="stroke:none;fill:black;font-family:sans-serif;font-size:13;font-weight:bold;" transform="matrix(1 0 0 1 263 1953)">Design Variations</text>
  <text style="stroke:none;fill:black;font-family:sans-serif;font-size:13;" transform="matrix(1 0 0 1 263 1971)">Symbols are supported in up to nine weights and three scales.</text>
  <text style="stroke:none;fill:black;font-family:sans-serif;font-size:13;" transform="matrix(1 0 0 1 263 1989)">For optimal layout with text and other symbols, vertically align</text>
  <text style="stroke:none;fill:black;font-family:sans-serif;font-size:13;" transform="matrix(1 0 0 1 263 2007)">symbols with the adjacent text.</text>
  <line style="fill:none;stroke:#00AEEF;stroke-width:0.5;opacity:1.0;" x1="776" x2="776" y1="1919" y2="1933"/>
  <g transform="matrix(0.2 0 0 0.2 776 1933)">
   <path d="m16.5527 0.78125c2.58789 0 3.85742-0.976562 4.78516-3.71094l20.5566-57.5195h0.244141l20.6055 57.5195c0.927734 2.73438 2.19727 3.71094 4.73633 3.71094 2.58789 0 4.24805-1.5625 4.24805-4.00391 0-0.830078-0.146484-1.61133-0.537109-2.63672l-22.9004-60.9863c-1.12305-2.97852-3.125-4.49219-6.25-4.49219-3.02734 0-5.07812 1.46484-6.15234 4.44336l-22.9004 61.084c-0.390625 1.02539-0.537109 1.80664-0.537109 2.63672 0 2.44141 1.5625 3.95508 4.10156 3.95508Zm10.2051-20.9473h30.6641c2.00195 0 3.66211-1.66016 3.66211-3.66211 0-2.05078-1.66016-3.66211-3.66211-3.66211h-30.6641c-2.00195 0-3.66211 1.61133-3.66211 3.66211 0 2.00195 1.66016 3.66211 3.66211 3.66211Z"/>
  </g>
  <line style="fill:none;stroke:#00AEEF;stroke-width:0.5;opacity:1.0;" x1="792.836" x2="792.836" y1="1919" y2="1933"/>
  <text style="stroke:none;fill:black;font-family:sans-serif;font-size:13;font-weight:bold;" transform="matrix(1 0 0 1 776 1953)">Margins</text>
  <text style="stroke:none;fill:black;font-family:sans-serif;font-size:13;" transform="matrix(1 0 0 1 776 1971)">Leading and trailing margins on the left and right side of each symbol</text>
  <text style="stroke:none;fill:black;font-family:sans-serif;font-size:13;" transform="matrix(1 0 0 1 776 1989)">can be adjusted by modifying the x-location of the margin guidelines.</text>
  <text style="stroke:none;fill:black;font-family:sans-serif;font-size:13;" transform="matrix(1 0 0 1 776 2007)">Modifications are automatically applied proportionally to all</text>
  <text style="stroke:none;fill:black;font-family:sans-serif;font-size:13;" transform="matrix(1 0 0 1 776 2025)">scales and weights.</text>
  <g transform="matrix(0.2 0 0 0.2 1289 1933)">
   <path d="m14.209 13.1348 7.86133 7.86133c4.29688 4.39453 9.32617 4.10156 13.8672-1.02539l60.6934-68.2129-4.88281-4.88281-60.2539 67.6758c-1.80664 1.95312-3.4668 2.44141-5.81055 0.0976562l-5.17578-5.12695c-2.29492-2.29492-1.80664-3.95508 0.195312-5.81055l67.4805-62.1582-4.88281-4.83398-68.0664 62.5977c-4.98047 4.58984-5.32227 9.47266-1.02539 13.8184Zm44.873-97.4609c-2.05078 2.00195-2.24609 4.88281-1.07422 6.78711 1.12305 1.80664 3.4668 3.02734 6.5918 2.24609 5.85938-1.66016 12.5977-2.39258 18.8965 0.927734l-2.68555 7.12891c-1.61133 4.00391-0.732422 6.88477 1.70898 9.42383l10.2539 10.3027c2.34375 2.39258 4.54102 2.44141 7.08008 1.95312l4.44336-0.732422 2.58789 2.53906-0.195312 2.24609c-0.0976562 2.29492 0.537109 4.29688 2.7832 6.49414l3.36914 3.32031c2.29492 2.29492 5.51758 2.49023 7.8125 0.195312l12.9883-13.0371c2.29492-2.34375 2.14844-5.37109-0.195312-7.66602l-3.41797-3.41797c-2.19727-2.19727-4.05273-3.02734-6.34766-2.88086l-2.34375 0.244141-2.44141-2.44141 1.02539-4.6875c0.634766-2.73438-0.244141-4.98047-2.88086-7.61719l-11.2793-11.1816c-12.9395-12.8418-35.5957-11.0352-46.6797-0.146484Zm7.08008 2.05078c8.78906-6.39648 25.9766-5.66406 33.6914 1.95312l12.3047 12.207c1.02539 1.02539 1.2207 1.80664 0.927734 3.32031l-1.46484 6.64062 6.73828 6.68945 4.39453-0.244141c1.12305-0.0488281 1.51367 0.0488281 2.34375 0.878906l2.53906 2.49023-10.8398 10.8398-2.49023-2.49023c-0.830078-0.878906-0.976562-1.2207-0.927734-2.39258l0.292969-4.3457-6.68945-6.73828-6.83594 1.17188c-1.41602 0.292969-2.05078 0.195312-3.17383-0.878906l-8.93555-8.88672c-1.07422-1.02539-1.17188-1.70898-0.488281-3.36914l4.58984-11.4746c-6.10352-6.34766-17.041-7.51953-25.5859-4.58984-0.683594 0.244141-0.927734-0.390625-0.390625-0.78125Z"/>
  </g>
  <text style="stroke:none;fill:black;font-family:sans-serif;font-size:13;font-weight:bold;" transform="matrix(1 0 0 1 1289 1953)">Exporting</text>
  <text style="stroke:none;fill:black;font-family:sans-serif;font-size:13;" transform="matrix(1 0 0 1 1289 1971)">Symbols should be outlined when exporting to ensure the</text>
  <text style="stroke:none;fill:black;font-family:sans-serif;font-size:13;" transform="matrix(1 0 0 1 1289 1989)">design is preserved when submitting to Xcode.</text>
  <text id="template-version" style="stroke:none;fill:black;font-family:sans-serif;font-size:13;text-anchor:end;" transform="matrix(1 0 0 1 3036 1933)">Template v.7.0</text>
  <text style="stroke:none;fill:black;font-family:sans-serif;font-size:13;text-anchor:end;" transform="matrix(1 0 0 1 3036 1951)">Requires Xcode 17 or greater</text>
  <text id="descriptive-name" style="stroke:none;fill:black;font-family:sans-serif;font-size:13;text-anchor:end;" transform="matrix(1 0 0 1 3036 1969)">Generated from tram</text>
  <text style="stroke:none;fill:black;font-family:sans-serif;font-size:13;text-anchor:end;" transform="matrix(1 0 0 1 3036 1987)">Typeset at 100.0 points</text>
  <text style="stroke:none;fill:black;font-family:sans-serif;font-size:13;" transform="matrix(1 0 0 1 263 726)">Small</text>
  <text style="stroke:none;fill:black;font-family:sans-serif;font-size:13;" transform="matrix(1 0 0 1 263 1156)">Medium</text>
  <text style="stroke:none;fill:black;font-family:sans-serif;font-size:13;" transform="matrix(1 0 0 1 263 1586)">Large</text>
 </g>
 <g id="Guides">
  <g id="H-reference" style="fill:#27AAE1;stroke:none;" transform="matrix(1 0 0 1 339 696)">
   <path d="M0.993654 0L3.63775 0L29.3281-67.1323L30.0303-67.1323L30.0303-70.459L28.1226-70.459ZM11.6885-24.4799L46.9815-24.4799L46.2315-26.7285L12.4385-26.7285ZM55.1196 0L57.7637 0L30.6382-70.459L29.4326-70.459L29.4326-67.1323Z"/>
  </g>
  <line id="Baseline-S" style="fill:none;stroke:#27AAE1;opacity:1;stroke-width:0.5;" x1="263" x2="3036" y1="696" y2="696"/>
  <line id="Capline-S" style="fill:none;stroke:#27AAE1;opacity:1;stroke-width:0.5;" x1="263" x2="3036" y1="625.541" y2="625.541"/>
  <g id="H-reference" style="fill:#27AAE1;stroke:none;" transform="matrix(1 0 0 1 339 1126)">
   <path d="M0.993654 0L3.63775 0L29.3281-67.1323L30.0303-67.1323L30.0303-70.459L28.1226-70.459ZM11.6885-24.4799L46.9815-24.4799L46.2315-26.7285L12.4385-26.7285ZM55.1196 0L57.7637 0L30.6382-70.459L29.4326-70.459L29.4326-67.1323Z"/>
  </g>
  <line id="Baseline-M" style="fill:none;stroke:#27AAE1;opacity:1;stroke-width:0.5;" x1="263" x2="3036" y1="1126" y2="1126"/>
  <line id="Capline-M" style="fill:none;stroke:#27AAE1;opacity:1;stroke-width:0.5;" x1="263" x2="3036" y1="1055.54" y2="1055.54"/>
  <g id="H-reference" style="fill:#27AAE1;stroke:none;" transform="matrix(1 0 0 1 339 1556)">
   <path d="M0.993654 0L3.63775 0L29.3281-67.1323L30.0303-67.1323L30.0303-70.459L28.1226-70.459ZM11.6885-24.4799L46.9815-24.4799L46.2315-26.7285L12.4385-26.7285ZM55.1196 0L57.7637 0L30.6382-70.459L29.4326-70.459L29.4326-67.1323Z"/>
  </g>
  <line id="Baseline-L" style="fill:none;stroke:#27AAE1;opacity:1;stroke-width:0.5;" x1="263" x2="3036" y1="1556" y2="1556"/>
  <line id="Capline-L" style="fill:none;stroke:#27AAE1;opacity:1;stroke-width:0.5;" x1="263" x2="3036" y1="1485.54" y2="1485.54"/>
  <line id="right-margin-Black-S" style="fill:none;stroke:#00AEEF;stroke-width:0.5;opacity:1.0;" x1="2984.86" x2="2984.86" y1="600.785" y2="720.121"/>
  <line id="left-margin-Black-S" style="fill:none;stroke:#00AEEF;stroke-width:0.5;opacity:1.0;" x1="2881.94" x2="2881.94" y1="600.785" y2="720.121"/>
  <line id="right-margin-Regular-S" style="fill:none;stroke:#00AEEF;stroke-width:0.5;opacity:1.0;" x1="1494.89" x2="1494.89" y1="600.785" y2="720.121"/>
  <line id="left-margin-Regular-S" style="fill:none;stroke:#00AEEF;stroke-width:0.5;opacity:1.0;" x1="1404.8" x2="1404.8" y1="600.785" y2="720.121"/>
  <line id="right-margin-Ultralight-S" style="fill:none;stroke:#00AEEF;stroke-width:0.5;opacity:1.0;" x1="601.758" x2="601.758" y1="600.785" y2="720.121"/>
  <line id="left-margin-Ultralight-S" style="fill:none;stroke:#00AEEF;stroke-width:0.5;opacity:1.0;" x1="517.664" x2="517.664" y1="600.785" y2="720.121"/>
 </g>
 <g id="Symbols">
  <g id="Black-S" transform="matrix(1 0 0 1 2881.94 696)">
   <path class="monochrome-0 multicolor-0:tintColor hierarchical-0:primary SFSymbolsPreviewWireframe" d="M28.3691 3.4668L74.5605 3.4668C86.2305 3.4668 93.1641-3.4668 93.1641-15.1367L93.1641-46.9727C93.1641-58.5449 92.627-62.1582 91.6504-67.4805C88.8672-82.6172 82.4219-89.1113 68.457-91.4062C63.7207-92.1875 58.1055-92.4805 51.4648-92.4805C44.8242-92.4805 39.209-92.1875 34.4727-91.4062C20.5078-89.1113 14.0625-82.6172 11.2793-67.4805C10.3027-62.1582 9.76562-58.5449 9.76562-46.9727L9.76562-15.1367C9.76562-3.4668 16.6992 3.4668 28.3691 3.4668ZM30.0293-8.05664C24.4141-8.05664 21.0938-11.4258 21.0938-17.0898L21.0938-46.9727C21.0938-58.5449 21.6797-61.084 22.6074-66.6016C24.1699-75.8789 27.8809-79.1992 36.6699-80.3711C40.5273-80.8594 45.4102-80.957 51.4648-80.957C57.5195-80.957 62.4023-80.8594 66.2598-80.3711C75.0488-79.1992 78.7598-75.8789 80.3223-66.6016C81.25-61.084 81.8359-58.5449 81.8359-46.9727L81.8359-17.0898C81.8359-11.4258 78.5156-8.05664 72.9004-8.05664ZM41.6016-69.1406L61.3281-69.1406C63.5742-69.1406 65.2832-70.8496 65.2832-73.0957C65.2832-75.3906 63.5742-77.0996 61.3281-77.0996L41.6016-77.0996C39.3555-77.0996 37.6953-75.3906 37.6953-73.0957C37.6953-70.8008 39.3555-69.1406 41.6016-69.1406ZM51.4648-27.5879C61.0352-27.6367 67.7246-27.9785 71.582-28.418C74.4629-28.7598 76.2207-30.8105 76.2207-33.6426L76.2207-44.2383C76.2207-50.9766 75.4395-57.8613 75.1465-59.8145C74.8047-62.2559 72.998-64.0137 70.6055-64.3066C66.6992-64.7949 60.4004-65.0391 51.4648-65.1367C42.3828-65.0391 36.1816-64.7949 32.3242-64.3066C29.9316-64.0137 28.125-62.2559 27.7832-59.8145C27.4902-57.8613 26.709-50.9766 26.709-44.2383L26.709-33.6426C26.709-30.8105 28.4668-28.7598 31.3477-28.418C35.1562-27.9785 41.7969-27.6367 51.4648-27.5879ZM32.7148-12.4512C35.791-12.4512 38.1348-14.7949 38.1348-17.8711C38.1348-20.9473 35.791-23.291 32.7148-23.291C29.6875-23.291 27.3438-20.9473 27.3438-17.8711C27.3438-14.7949 29.6387-12.4512 32.7148-12.4512ZM70.2148-12.4512C73.2422-12.4512 75.5859-14.7949 75.5859-17.8711C75.5859-20.9473 73.291-23.291 70.2148-23.291C67.1387-23.291 64.7949-20.9473 64.7949-17.8711C64.7949-14.7949 67.1387-12.4512 70.2148-12.4512ZM18.3105 21.7773L21.875 21.7773C23.7793 21.7773 24.9512 21.0938 25.9766 19.4824L40.2832-3.51562L27.3926-3.51562L15.332 15.8203C13.8672 18.1641 14.7949 21.7773 18.3105 21.7773ZM23.8281 16.3574L77.5879 16.3574L77.5879 6.98242L23.8281 6.98242ZM79.541 21.7773L82.1289 21.7773C85.6445 21.7773 87.5488 18.1641 85.6445 15.1367L74.0234-3.51562L61.1328-3.51562L75.4395 19.4824C76.4648 21.0938 77.6367 21.7773 79.541 21.7773Z"/>
  </g>
  <g id="Regular-S" transform="matrix(1 0 0 1 1404.8 696)">
   <path class="monochrome-0 multicolor-0:tintColor hierarchical-0:primary SFSymbolsPreviewWireframe" d="M24.1211-2.58789L65.9668-2.58789C74.6582-2.58789 80.3223-8.64258 80.3223-17.5781L80.3223-40.8203C80.3223-50.4883 79.1992-60.791 77.4414-67.9688C75.3906-76.7578 69.4336-82.4707 61.2305-83.3496C59.1309-83.5449 52.3438-84.082 45.0195-84.082C36.8164-84.082 30.957-83.5449 28.8086-83.3496C20.6543-82.4707 14.6484-76.7578 12.6465-67.9688C10.8887-60.791 9.76562-50.9277 9.76562-41.2109L9.76562-17.5781C9.76562-8.64258 15.4297-2.58789 24.1211-2.58789ZM25.0488-8.25195C18.5059-8.25195 15.4297-12.0605 15.4297-17.5781L15.4297-41.2109C15.4297-50.5371 16.4551-59.8633 18.1152-66.6504C19.6777-73.1445 23.7305-77.0996 29.3945-77.6855C31.4453-77.9297 37.0117-78.418 45.0195-78.418C52.1484-78.418 58.5938-77.9297 60.6934-77.6855C66.3574-77.0996 70.4102-73.1445 71.9727-66.6504C73.584-59.8633 74.6582-50.0977 74.6582-40.8203L74.6582-17.5781C74.6582-12.0605 71.5332-8.25195 65.0391-8.25195ZM35.4004-68.3105L54.6875-68.3105C56.25-68.3105 57.2266-69.2871 57.2266-70.8008C57.2266-72.3633 56.25-73.291 54.6875-73.291L35.4004-73.291C33.8379-73.291 32.8613-72.3633 32.8613-70.8008C32.8613-69.2871 33.8379-68.3105 35.4004-68.3105ZM45.0195-30.2246C55.0781-30.2734 62.6953-30.7129 66.6504-31.25C68.8965-31.543 69.6289-32.959 69.6289-35.0098L69.6289-43.6035C69.6289-51.6113 68.75-57.959 68.1641-60.2051C67.7734-61.7676 66.8945-62.8906 65.2832-63.0859C61.0352-63.623 56.6895-63.916 45.0195-63.9648C33.3496-63.916 29.0527-63.623 24.7559-63.0859C23.1934-62.8906 22.2656-61.7676 21.875-60.2051C21.3379-57.959 20.459-51.6113 20.459-43.6035L20.459-35.0098C20.459-32.959 21.1914-31.543 23.4375-31.25C27.3926-30.7129 35.0098-30.2734 45.0195-30.2246ZM27.2949-13.8672C30.3711-13.8672 32.7637-16.1621 32.7637-19.3359C32.7637-22.4609 30.4688-24.7559 27.2949-24.7559C24.1699-24.7559 21.875-22.4609 21.875-19.3359C21.875-16.1621 24.1699-13.8672 27.2949-13.8672ZM62.6953-13.8184C65.7227-13.8184 68.1641-16.2109 68.1641-19.3359C68.1641-22.4121 65.7715-24.8047 62.6953-24.8047C59.5703-24.8047 57.1777-22.4121 57.1777-19.3359C57.1777-16.2109 59.5703-13.8184 62.6953-13.8184ZM18.5547 13.0859L20.8496 13.0859C22.0215 13.0859 22.6562 12.6953 23.291 11.6699L34.668-6.64062L26.6602-6.64062L16.6504 9.42383C15.5762 11.1816 16.6016 13.0859 18.5547 13.0859ZM21.7773 8.10547L68.4082 8.10547L68.4082 1.9043L21.7773 1.9043ZM69.3848 13.0859L71.6797 13.0859C73.6328 13.0859 74.5605 11.1328 73.4863 9.42383L63.5742-6.64062L55.6152-6.64062L66.9922 11.6699C67.5781 12.6953 68.2617 13.0859 69.3848 13.0859Z"/>
  </g>
  <g id="Ultralight-S" transform="matrix(1 0 0 1 517.664 696)">
   <path class="monochrome-0 multicolor-0:tintColor hierarchical-0:primary SFSymbolsPreviewWireframe" d="M22.895-2.81494L61.1988-2.81494C70.753-2.81494 74.3282-8.86963 74.3282-15.8071L74.3282-39.8667C74.3282-52.5771 72.2515-64.56 70.5845-70.4209C69.1241-75.6226 65.1651-79.065 59.9136-79.7168C55.7251-80.23 49.3467-80.6763 42.0679-80.6763C34.7276-80.6763 28.3687-80.23 24.1768-79.7168C18.9287-79.065 14.9663-75.6226 13.5093-70.4209C11.8423-64.56 9.76562-52.6079 9.76562-39.8486L9.76562-15.8071C9.76562-8.86963 13.3408-2.81494 22.895-2.81494ZM23.187-4.93704C14.7368-4.93704 11.8877-10.0625 11.8877-15.8071L11.8877-39.8486C11.8877-52.6714 14.3208-64.5405 15.7539-70.1469C16.8169-74.2798 20.0069-77.0542 24.4449-77.6855C29.3565-78.3838 35.5586-78.5542 42.0679-78.5542C48.4702-78.5542 54.7339-78.3838 59.6943-77.6855C64.0869-77.0542 67.3223-74.2798 68.3399-70.1469C69.7696-64.5405 72.2061-52.6406 72.2061-39.8667L72.2061-15.8071C72.2061-10.0625 69.3535-4.93704 60.9068-4.93704ZM31.7222-68.8101L52.3716-68.8101C53.3438-68.8101 53.8662-69.4687 53.8662-70.3921C53.8662-71.228 53.3438-71.8833 52.3716-71.8833L31.7222-71.8833C30.7954-71.8833 30.2276-71.228 30.2276-70.3921C30.2276-69.4687 30.7954-68.8101 31.7222-68.8101ZM42.0679-26.3194C49.7652-26.3682 56.0201-26.626 60.8833-27.0269C63.5381-27.2744 65.1333-29.0083 65.1333-31.6494L65.1333-41.333C65.1333-47.7515 64.4361-53.6905 63.5323-58.5249C63.1416-60.814 61.4908-62.3003 59.1983-62.541C55.0865-62.9419 49.5147-63.2349 42.0679-63.2383C34.5303-63.2349 28.9165-62.9419 24.3472-62.4956C22.3306-62.3003 20.8579-60.814 20.4673-58.5249C19.5669-53.6905 18.8696-47.7515 18.8696-41.333L18.8696-31.6494C18.8696-29.0083 20.4648-27.2744 23.1196-27.0269C27.9829-26.626 34.2378-26.3682 42.0679-26.3194ZM24.0708-12.5503C26.6021-12.5503 28.5406-14.4365 28.5406-16.9746C28.5406-19.5093 26.6089-21.3501 24.0708-21.3501C21.5816-21.3501 19.6953-19.5093 19.6953-16.9746C19.6953-14.4365 21.5816-12.5503 24.0708-12.5503ZM60.107-12.5469C62.544-12.5469 64.4859-14.44 64.4859-16.9746C64.4859-19.5059 62.5928-21.3535 60.107-21.3535C57.5723-21.3535 55.6338-19.5059 55.6338-16.9746C55.6338-14.44 57.5723-12.5469 60.107-12.5469ZM16.1934 10.2705L17.6255 10.2705C18.3433 10.2705 18.6602 10.0615 19.0225 9.49025L27.7203-4.46095L23.3907-4.46095L15.3335 8.51563C14.8042 9.36525 15.1484 10.2705 16.1934 10.2705ZM20.2334 6.01662L63.8218 6.01662L63.8218 2.44921L20.2334 2.44921ZM66.4331 10.2705L67.8653 10.2705C68.9102 10.2705 69.2476 9.36183 68.7183 8.51563L60.668-4.46095L56.3418-4.46095L65.0396 9.49025C65.3985 10.0615 65.7188 10.2705 66.4331 10.2705Z"/>
  </g>
 </g>
</svg>
