<?xml version="1.0" encoding="UTF-8"?>
<!--Generator: Apple Native CoreSVG 341-->
<!DOCTYPE svg
PUBLIC "-//W3C//DTD SVG 1.1//EN"
       "http://www.w3.org/Graphics/SVG/1.1/DTD/svg11.dtd">
<svg version="1.1" xmlns="http://www.w3.org/2000/svg" xmlns:xlink="http://www.w3.org/1999/xlink" viewBox="0 0 3300 2200">
 <!--glyph: "100211", point size: 100.0, font version: "21.0d6e2", template writer version: "138.0.0"-->
 <style>.defaults {-sfsymbols-variable-value-mode:color;-sfsymbols-draw-reverses-motion-groups:true}

.monochrome-0 {-sfsymbols-motion-group:0;-sfsymbols-layer-tags:trash}

.multicolor-0:systemRedColor {-sfsymbols-motion-group:0;-sfsymbols-layer-tags:trash}

.hierarchical-0:primary {-sfsymbols-motion-group:0;-sfsymbols-layer-tags:trash}

.SFSymbolsPreviewWireframe {fill:none;opacity:1.0;stroke:black;stroke-width:0.5}
</style>
 <g id="Notes">
  <rect height="2200" id="artboard" style="fill:white;opacity:1" width="3300" x="0" y="0"/>
  <line style="fill:none;stroke:black;opacity:1;stroke-width:0.5;" x1="263" x2="3036" y1="292" y2="292"/>
  <text style="stroke:none;fill:black;font-family:sans-serif;font-size:13;font-weight:bold;" transform="matrix(1 0 0 1 263 322)">Weight/Scale Variations</text>
  <text style="stroke:none;fill:black;font-family:sans-serif;font-size:13;text-anchor:middle;" transform="matrix(1 0 0 1 559.711 322)">Ultralight</text>
  <text style="stroke:none;fill:black;font-family:sans-serif;font-size:13;text-anchor:middle;" transform="matrix(1 0 0 1 856.422 322)">Thin</text>
  <text style="stroke:none;fill:black;font-family:sans-serif;font-size:13;text-anchor:middle;" transform="matrix(1 0 0 1 1153.13 322)">Light</text>
  <text style="stroke:none;fill:black;font-family:sans-serif;font-size:13;text-anchor:middle;" transform="matrix(1 0 0 1 1449.84 322)">Regular</text>
  <text style="stroke:none;fill:black;font-family:sans-serif;font-size:13;text-anchor:middle;" transform="matrix(1 0 0 1 1746.56 322)">Medium</text>
  <text style="stroke:none;fill:black;font-family:sans-serif;font-size:13;text-anchor:middle;" transform="matrix(1 0 0 1 2043.27 322)">Semibold</text>
  <text style="stroke:none;fill:black;font-family:sans-serif;font-size:13;text-anchor:middle;" transform="matrix(1 0 0 1 2339.98 322)">Bold</text>
  <text style="stroke:none;fill:black;font-family:sans-serif;font-size:13;text-anchor:middle;" transform="matrix(1 0 0 1 2636.69 322)">Heavy</text>
  <text style="stroke:none;fill:black;font-family:sans-serif;font-size:13;text-anchor:middle;" transform="matrix(1 0 0 1 2933.4 322)">Black</text>
  <line style="fill:none;stroke:black;opacity:1;stroke-width:0.5;" x1="263" x2="3036" y1="1903" y2="1903"/>
  <g transform="matrix(0.2 0 0 0.2 263 1933)">
   <path d="m46.2402 4.15039c21.7773 0 39.4531-17.627 39.4531-39.4043s-17.6758-39.4043-39.4531-39.4043c-21.7285 0-39.4043 17.627-39.4043 39.4043s17.6758 39.4043 39.4043 39.4043Zm0-7.42188c-17.6758 0-31.9336-14.3066-31.9336-31.9824s14.2578-31.9824 31.9336-31.9824 31.9824 14.3066 31.9824 31.9824-14.3066 31.9824-31.9824 31.9824Zm3.61328-17.7734v-28.4668c0-2.24609-1.46484-3.75977-3.71094-3.75977-2.14844 0-3.61328 1.51367-3.61328 3.75977v28.4668c0 2.19727 1.46484 3.71094 3.61328 3.71094 2.24609 0 3.71094-1.51367 3.71094-3.71094Zm-17.8223-10.5957h28.418c2.19727 0 3.71094-1.46484 3.71094-3.61328 0-2.19727-1.51367-3.71094-3.71094-3.71094h-28.418c-2.24609 0-3.75977 1.51367-3.75977 3.71094 0 2.14844 1.51367 3.61328 3.75977 3.61328Z"/>
  </g>
  <g transform="matrix(0.2 0 0 0.2 281.506 1933)">
   <path d="m58.5449 14.5508c27.4902 0 49.8047-22.3145 49.8047-49.8047s-22.3145-49.8047-49.8047-49.8047-49.8047 22.3145-49.8047 49.8047 22.3145 49.8047 49.8047 49.8047Zm0-8.30078c-22.9492 0-41.5039-18.5547-41.5039-41.5039s18.5547-41.5039 41.5039-41.5039 41.5039 18.5547 41.5039 41.5039-18.5547 41.5039-41.5039 41.5039Zm4.05273-23.0957v-36.9141c0-2.49023-1.70898-4.19922-4.15039-4.19922-2.39258 0-4.05273 1.70898-4.05273 4.19922v36.9141c0 2.44141 1.66016 4.15039 4.05273 4.15039 2.44141 0 4.15039-1.66016 4.15039-4.15039Zm-22.5586-14.4043h36.9629c2.44141 0 4.15039-1.61133 4.15039-4.00391 0-2.44141-1.70898-4.15039-4.15039-4.15039h-36.9629c-2.49023 0-4.15039 1.70898-4.15039 4.15039 0 2.39258 1.66016 4.00391 4.15039 4.00391Z"/>
  </g>
  <g transform="matrix(0.2 0 0 0.2 304.924 1933)">
   <path d="m74.8535 28.3203c35.1074 0 63.623-28.4668 63.623-63.5742s-28.5156-63.623-63.623-63.623-63.5742 28.5156-63.5742 63.623 28.4668 63.5742 63.5742 63.5742Zm0-9.08203c-30.127 0-54.4922-24.3652-54.4922-54.4922s24.3652-54.4922 54.4922-54.4922 54.4922 24.3652 54.4922 54.4922-24.3652 54.4922-54.4922 54.4922Zm4.44336-30.3223v-48.4863c0-2.73438-1.85547-4.63867-4.54102-4.63867-2.58789 0-4.44336 1.9043-4.44336 4.63867v48.4863c0 2.68555 1.85547 4.58984 4.44336 4.58984 2.68555 0 4.54102-1.85547 4.54102-4.58984Zm-28.7109-19.7754h48.4863c2.68555 0 4.58984-1.80664 4.58984-4.39453 0-2.73438-1.85547-4.58984-4.58984-4.58984h-48.4863c-2.73438 0-4.58984 1.85547-4.58984 4.58984 0 2.58789 1.85547 4.39453 4.58984 4.39453Z"/>
  </g>
  <text style="stroke:none;fill:black;font-family:sans-serif;font-size:13;font-weight:bold;" transform="matrix(1 0 0 1 263 1953)">Design Variations</text>
  <text style="stroke:none;fill:black;font-family:sans-serif;font-size:13;" transform="matrix(1 0 0 1 263 1971)">Symbols are supported in up to nine weights and three scales.</text>
  <text style="stroke:none;fill:black;font-family:sans-serif;font-size:13;" transform="matrix(1 0 0 1 263 1989)">For optimal layout with text and other symbols, vertically align</text>
  <text style="stroke:none;fill:black;font-family:sans-serif;font-size:13;" transform="matrix(1 0 0 1 263 2007)">symbols with the adjacent text.</text>
  <line style="fill:none;stroke:#00AEEF;stroke-width:0.5;opacity:1.0;" x1="776" x2="776" y1="1919" y2="1933"/>
  <g transform="matrix(0.2 0 0 0.2 776 1933)">
   <path d="m16.5527 0.78125c2.58789 0 3.85742-0.976562 4.78516-3.71094l20.5566-57.5195h0.244141l20.6055 57.5195c0.927734 2.73438 2.19727 3.71094 4.73633 3.71094 2.58789 0 4.24805-1.5625 4.24805-4.00391 0-0.830078-0.146484-1.61133-0.537109-2.63672l-22.9004-60.9863c-1.12305-2.97852-3.125-4.49219-6.25-4.49219-3.02734 0-5.07812 1.46484-6.15234 4.44336l-22.9004 61.084c-0.390625 1.02539-0.537109 1.80664-0.537109 2.63672 0 2.44141 1.5625 3.95508 4.10156 3.95508Zm10.2051-20.9473h30.6641c2.00195 0 3.66211-1.66016 3.66211-3.66211 0-2.05078-1.66016-3.66211-3.66211-3.66211h-30.6641c-2.00195 0-3.66211 1.61133-3.66211 3.66211 0 2.00195 1.66016 3.66211 3.66211 3.66211Z"/>
  </g>
  <line style="fill:none;stroke:#00AEEF;stroke-width:0.5;opacity:1.0;" x1="792.836" x2="792.836" y1="1919" y2="1933"/>
  <text style="stroke:none;fill:black;font-family:sans-serif;font-size:13;font-weight:bold;" transform="matrix(1 0 0 1 776 1953)">Margins</text>
  <text style="stroke:none;fill:black;font-family:sans-serif;font-size:13;" transform="matrix(1 0 0 1 776 1971)">Leading and trailing margins on the left and right side of each symbol</text>
  <text style="stroke:none;fill:black;font-family:sans-serif;font-size:13;" transform="matrix(1 0 0 1 776 1989)">can be adjusted by modifying the x-location of the margin guidelines.</text>
  <text style="stroke:none;fill:black;font-family:sans-serif;font-size:13;" transform="matrix(1 0 0 1 776 2007)">Modifications are automatically applied proportionally to all</text>
  <text style="stroke:none;fill:black;font-family:sans-serif;font-size:13;" transform="matrix(1 0 0 1 776 2025)">scales and weights.</text>
  <g transform="matrix(0.2 0 0 0.2 1289 1933)">
   <path d="m14.209 13.1348 7.86133 7.86133c4.29688 4.39453 9.32617 4.10156 13.8672-1.02539l60.6934-68.2129-4.88281-4.88281-60.2539 67.6758c-1.80664 1.95312-3.4668 2.44141-5.81055 0.0976562l-5.17578-5.12695c-2.29492-2.29492-1.80664-3.95508 0.195312-5.81055l67.4805-62.1582-4.88281-4.83398-68.0664 62.5977c-4.98047 4.58984-5.32227 9.47266-1.02539 13.8184Zm44.873-97.4609c-2.05078 2.00195-2.24609 4.88281-1.07422 6.78711 1.12305 1.80664 3.4668 3.02734 6.5918 2.24609 5.85938-1.66016 12.5977-2.39258 18.8965 0.927734l-2.68555 7.12891c-1.61133 4.00391-0.732422 6.88477 1.70898 9.42383l10.2539 10.3027c2.34375 2.39258 4.54102 2.44141 7.08008 1.95312l4.44336-0.732422 2.58789 2.53906-0.195312 2.24609c-0.0976562 2.29492 0.537109 4.29688 2.7832 6.49414l3.36914 3.32031c2.29492 2.29492 5.51758 2.49023 7.8125 0.195312l12.9883-13.0371c2.29492-2.34375 2.14844-5.37109-0.195312-7.66602l-3.41797-3.41797c-2.19727-2.19727-4.05273-3.02734-6.34766-2.88086l-2.34375 0.244141-2.44141-2.44141 1.02539-4.6875c0.634766-2.73438-0.244141-4.98047-2.88086-7.61719l-11.2793-11.1816c-12.9395-12.8418-35.5957-11.0352-46.6797-0.146484Zm7.08008 2.05078c8.78906-6.39648 25.9766-5.66406 33.6914 1.95312l12.3047 12.207c1.02539 1.02539 1.2207 1.80664 0.927734 3.32031l-1.46484 6.64062 6.73828 6.68945 4.39453-0.244141c1.12305-0.0488281 1.51367 0.0488281 2.34375 0.878906l2.53906 2.49023-10.8398 10.8398-2.49023-2.49023c-0.830078-0.878906-0.976562-1.2207-0.927734-2.39258l0.292969-4.3457-6.68945-6.73828-6.83594 1.17188c-1.41602 0.292969-2.05078 0.195312-3.17383-0.878906l-8.93555-8.88672c-1.07422-1.02539-1.17188-1.70898-0.488281-3.36914l4.58984-11.4746c-6.10352-6.34766-17.041-7.51953-25.5859-4.58984-0.683594 0.244141-0.927734-0.390625-0.390625-0.78125Z"/>
  </g>
  <text style="stroke:none;fill:black;font-family:sans-serif;font-size:13;font-weight:bold;" transform="matrix(1 0 0 1 1289 1953)">Exporting</text>
  <text style="stroke:none;fill:black;font-family:sans-serif;font-size:13;" transform="matrix(1 0 0 1 1289 1971)">Symbols should be outlined when exporting to ensure the</text>
  <text style="stroke:none;fill:black;font-family:sans-serif;font-size:13;" transform="matrix(1 0 0 1 1289 1989)">design is preserved when submitting to Xcode.</text>
  <text id="template-version" style="stroke:none;fill:black;font-family:sans-serif;font-size:13;text-anchor:end;" transform="matrix(1 0 0 1 3036 1933)">Template v.7.0</text>
  <text style="stroke:none;fill:black;font-family:sans-serif;font-size:13;text-anchor:end;" transform="matrix(1 0 0 1 3036 1951)">Requires Xcode 17 or greater</text>
  <text id="descriptive-name" style="stroke:none;fill:black;font-family:sans-serif;font-size:13;text-anchor:end;" transform="matrix(1 0 0 1 3036 1969)">Generated from trash</text>
  <text style="stroke:none;fill:black;font-family:sans-serif;font-size:13;text-anchor:end;" transform="matrix(1 0 0 1 3036 1987)">Typeset at 100.0 points</text>
  <text style="stroke:none;fill:black;font-family:sans-serif;font-size:13;" transform="matrix(1 0 0 1 263 726)">Small</text>
  <text style="stroke:none;fill:black;font-family:sans-serif;font-size:13;" transform="matrix(1 0 0 1 263 1156)">Medium</text>
  <text style="stroke:none;fill:black;font-family:sans-serif;font-size:13;" transform="matrix(1 0 0 1 263 1586)">Large</text>
 </g>
 <g id="Guides">
  <g id="H-reference" style="fill:#27AAE1;stroke:none;" transform="matrix(1 0 0 1 339 696)">
   <path d="M0.993654 0L3.63775 0L29.3281-67.1323L30.0303-67.1323L30.0303-70.459L28.1226-70.459ZM11.6885-24.4799L46.9815-24.4799L46.2315-26.7285L12.4385-26.7285ZM55.1196 0L57.7637 0L30.6382-70.459L29.4326-70.459L29.4326-67.1323Z"/>
  </g>
  <line id="Baseline-S" style="fill:none;stroke:#27AAE1;opacity:1;stroke-width:0.5;" x1="263" x2="3036" y1="696" y2="696"/>
  <line id="Capline-S" style="fill:none;stroke:#27AAE1;opacity:1;stroke-width:0.5;" x1="263" x2="3036" y1="625.541" y2="625.541"/>
  <g id="H-reference" style="fill:#27AAE1;stroke:none;" transform="matrix(1 0 0 1 339 1126)">
   <path d="M0.993654 0L3.63775 0L29.3281-67.1323L30.0303-67.1323L30.0303-70.459L28.1226-70.459ZM11.6885-24.4799L46.9815-24.4799L46.2315-26.7285L12.4385-26.7285ZM55.1196 0L57.7637 0L30.6382-70.459L29.4326-70.459L29.4326-67.1323Z"/>
  </g>
  <line id="Baseline-M" style="fill:none;stroke:#27AAE1;opacity:1;stroke-width:0.5;" x1="263" x2="3036" y1="1126" y2="1126"/>
  <line id="Capline-M" style="fill:none;stroke:#27AAE1;opacity:1;stroke-width:0.5;" x1="263" x2="3036" y1="1055.54" y2="1055.54"/>
  <g id="H-reference" style="fill:#27AAE1;stroke:none;" transform="matrix(1 0 0 1 339 1556)">
   <path d="M0.993654 0L3.63775 0L29.3281-67.1323L30.0303-67.1323L30.0303-70.459L28.1226-70.459ZM11.6885-24.4799L46.9815-24.4799L46.2315-26.7285L12.4385-26.7285ZM55.1196 0L57.7637 0L30.6382-70.459L29.4326-70.459L29.4326-67.1323Z"/>
  </g>
  <line id="Baseline-L" style="fill:none;stroke:#27AAE1;opacity:1;stroke-width:0.5;" x1="263" x2="3036" y1="1556" y2="1556"/>
  <line id="Capline-L" style="fill:none;stroke:#27AAE1;opacity:1;stroke-width:0.5;" x1="263" x2="3036" y1="1485.54" y2="1485.54"/>
  <line id="right-margin-Black-S" style="fill:none;stroke:#00AEEF;stroke-width:0.5;opacity:1.0;" x1="2980.37" x2="2980.37" y1="600.785" y2="720.121"/>
  <line id="left-margin-Black-S" style="fill:none;stroke:#00AEEF;stroke-width:0.5;opacity:1.0;" x1="2886.43" x2="2886.43" y1="600.785" y2="720.121"/>
  <line id="right-margin-Regular-S" style="fill:none;stroke:#00AEEF;stroke-width:0.5;opacity:1.0;" x1="1493.01" x2="1493.01" y1="600.785" y2="720.121"/>
  <line id="left-margin-Regular-S" style="fill:none;stroke:#00AEEF;stroke-width:0.5;opacity:1.0;" x1="1406.68" x2="1406.68" y1="600.785" y2="720.121"/>
  <line id="right-margin-Ultralight-S" style="fill:none;stroke:#00AEEF;stroke-width:0.5;opacity:1.0;" x1="601.354" x2="601.354" y1="600.785" y2="720.121"/>
  <line id="left-margin-Ultralight-S" style="fill:none;stroke:#00AEEF;stroke-width:0.5;opacity:1.0;" x1="518.068" x2="518.068" y1="600.785" y2="720.121"/>
 </g>
 <g id="Symbols">
  <g id="Black-S" transform="matrix(1 0 0 1 2886.43 696)">
   <path class="monochrome-0 multicolor-0:systemRedColor hierarchical-0:primary SFSymbolsPreviewWireframe" d="M35.9863-9.57031C38.3789-9.57031 39.8438-11.1328 39.7949-13.4277L38.6719-49.4629C38.623-51.709 37.0605-53.2227 34.7168-53.2227C32.4219-53.2227 31.0059-51.709 31.0547-49.4141L32.1777-13.3301C32.2266-11.084 33.7891-9.57031 35.9863-9.57031ZM46.9727-9.57031C49.2188-9.57031 50.7324-11.0352 50.7324-13.2812L50.7324-49.5117C50.7324-51.7578 49.2188-53.2227 46.9727-53.2227C44.7266-53.2227 43.2129-51.7578 43.2129-49.5117L43.2129-13.2812C43.2129-11.0352 44.7266-9.57031 46.9727-9.57031ZM57.959-9.57031C60.1562-9.57031 61.7188-11.084 61.7676-13.3301L62.8906-49.4141C62.9395-51.709 61.5234-53.2227 59.2285-53.2227C56.8848-53.2227 55.3223-51.709 55.2734-49.4629L54.1504-13.4277C54.1016-11.1328 55.5664-9.57031 57.959-9.57031ZM26.6602-67.334L38.5742-67.334L38.5742-74.0234C38.5742-75.0488 39.2578-75.5859 40.5762-75.5859L53.3691-75.5859C54.6875-75.5859 55.3711-75.0488 55.3711-74.0234L55.3711-67.334L67.2852-67.334L67.2852-74.2188C67.2852-81.5918 62.8418-85.4492 54.2969-85.4492L39.6484-85.4492C31.1035-85.4492 26.6602-81.5918 26.6602-74.2188ZM11.8164-57.6172L82.1289-57.6172C85.5957-57.6172 88.0859-59.9121 88.0859-63.3789C88.0859-66.748 85.5957-69.043 82.1289-69.043L11.8164-69.043C8.34961-69.043 5.85938-66.748 5.85938-63.3789C5.85938-59.9121 8.34961-57.6172 11.8164-57.6172ZM29.1992 6.54297L64.7461 6.54297C72.5098 6.54297 76.9531 2.83203 77.2949-4.98047L79.6875-58.3984L67.9199-58.3984L65.6738-8.59375C65.5762-6.29883 64.6973-5.17578 62.8906-5.17578L31.0547-5.17578C29.248-5.17578 28.3691-6.29883 28.2715-8.59375L26.0254-58.3984L14.2578-58.3984L16.6504-4.98047C16.9922 2.83203 21.4355 6.54297 29.1992 6.54297Z"/>
  </g>
  <g id="Regular-S" transform="matrix(1 0 0 1 1406.68 696)">
   <path class="monochrome-0 multicolor-0:systemRedColor hierarchical-0:primary SFSymbolsPreviewWireframe" d="M31.8848-8.54492C33.5449-8.54492 34.6191-9.57031 34.5703-11.084L33.4473-51.123C33.3984-52.6855 32.3242-53.6621 30.7617-53.6621C29.1504-53.6621 28.0273-52.6367 28.0762-51.123L29.1992-11.084C29.248-9.52148 30.3223-8.54492 31.8848-8.54492ZM43.1641-8.54492C44.8242-8.54492 45.9473-9.57031 45.9473-11.084L45.9473-51.123C45.9473-52.6367 44.8242-53.6621 43.1641-53.6621C41.5039-53.6621 40.3809-52.6367 40.3809-51.123L40.3809-11.084C40.3809-9.57031 41.5039-8.54492 43.1641-8.54492ZM54.4922-8.54492C56.0059-8.54492 57.1289-9.52148 57.1777-11.084L58.252-51.123C58.3008-52.6367 57.2266-53.6621 55.5664-53.6621C54.0039-53.6621 52.9297-52.6367 52.8809-51.123L51.8066-11.084C51.7578-9.57031 52.832-8.54492 54.4922-8.54492ZM26.123-63.623L33.0566-63.623L33.0566-71.8262C33.0566-73.8281 34.4727-75.1465 36.5234-75.1465L49.7559-75.1465C51.7578-75.1465 53.1738-73.8281 53.1738-71.8262L53.1738-63.623L60.1562-63.623L60.1562-72.3145C60.1562-78.0762 56.3965-81.6406 50.2441-81.6406L35.9863-81.6406C29.8828-81.6406 26.123-78.0762 26.123-72.3145ZM9.08203-60.1562L77.2461-60.1562C79.0527-60.1562 80.4688-61.6211 80.4688-63.4277C80.4688-65.2344 79.0039-66.6992 77.2461-66.6992L9.08203-66.6992C7.37305-66.6992 5.85938-65.2344 5.85938-63.4277C5.85938-61.6211 7.37305-60.1562 9.08203-60.1562ZM25.5371 4.05273L60.8398 4.05273C66.6504 4.05273 70.4102 0.439453 70.7031-5.41992L73.2422-60.8887L66.2598-60.8887L63.8184-6.15234C63.7207-3.95508 62.2559-2.49023 60.1074-2.49023L26.1719-2.49023C24.1211-2.49023 22.6074-4.00391 22.5098-6.15234L19.9219-60.8887L13.0859-60.8887L15.6738-5.37109C15.9668 0.488281 19.6289 4.05273 25.5371 4.05273Z"/>
  </g>
  <g id="Ultralight-S" transform="matrix(1 0 0 1 518.068 696)">
   <path class="monochrome-0 multicolor-0:systemRedColor hierarchical-0:primary SFSymbolsPreviewWireframe" d="M30.0684-7.54591C30.7295-7.54591 31.0772-7.98097 31.0738-8.54104L29.6328-53.3935C29.6294-53.957 29.1455-54.2978 28.6275-54.2978C28.0151-54.2978 27.6187-53.9536 27.6221-53.3027L29.063-8.49563C29.0664-7.93214 29.4595-7.54591 30.0684-7.54591ZM41.6655-7.54591C42.2813-7.54591 42.6778-7.93556 42.6778-8.54104L42.6778-53.3027C42.6778-53.9082 42.2813-54.2978 41.6655-54.2978C41.0952-54.2978 40.6533-53.9082 40.6533-53.3027L40.6533-8.54104C40.6533-7.93556 41.0952-7.54591 41.6655-7.54591ZM53.2207-7.45509C53.8716-7.45509 54.2681-7.88673 54.2715-8.45022L55.709-53.2573C55.7124-53.9082 55.2739-54.2524 54.7036-54.2524C54.1401-54.2524 53.6562-53.9082 53.6528-53.3481L52.2153-8.49563C52.2119-7.93556 52.605-7.45509 53.2207-7.45509ZM26.0776-64.2588L28.2886-64.2588L28.2886-72.2349C28.2886-75.3721 30.295-77.1899 33.708-77.1899L49.5742-77.1899C53.0293-77.1899 55.0356-75.3721 55.0356-72.2349L55.0356-64.2588L57.25-64.2588L57.25-72.269C57.25-76.7139 54.353-79.3701 49.5176-79.3701L33.7612-79.3701C28.9746-79.3701 26.0776-76.7139 26.0776-72.269ZM6.99318-63.1533L76.3379-63.1533C76.9639-63.1533 77.4263-63.6645 77.4263-64.2451C77.4263-64.9165 76.9151-65.3369 76.3379-65.3369L6.99318-65.3369C6.41944-65.3369 5.85938-64.8711 5.85938-64.2451C5.85938-63.6191 6.41944-63.1533 6.99318-63.1533ZM24.6743 3.50782L58.6602 3.50782C62.6089 3.50782 65.96 0.348634 66.1621-3.51271L69.3369-63.7041L66.9863-63.7041L63.8638-3.70021C63.7207-0.958031 61.3931 1.32419 58.5635 1.32419L24.6734 1.32419C21.896 1.32419 19.565-0.96145 19.4219-3.70021L16.2437-63.6587L13.9941-63.6587L17.2178-3.50929C17.4199 0.352052 20.7187 3.50782 24.6743 3.50782Z"/>
  </g>
 </g>
</svg>
